# Original simplified ArmOS Cornell-style scene
mtllib cornell-box.mtl
o CornellBox
v -2 -2 -2
v 2 -2 -2
v 2 2 -2
v -2 2 -2
v -2 -2 2
v 2 -2 2
v 2 2 2
v -2 2 2
usemtl White
f 1 2 3 4
f 1 5 6 2
f 4 3 7 8
usemtl Red
f 1 4 8 5
usemtl Green
f 2 6 7 3
o ShortBox
usemtl White
v -1.25 -2 -0.8
v 0.1 -2 -1.1
v 0.25 -2 0.2
v -1.1 -2 0.5
v -1.25 -0.65 -0.8
v 0.1 -0.65 -1.1
v 0.25 -0.65 0.2
v -1.1 -0.65 0.5
f 9 10 11 12
f 13 16 15 14
f 9 13 14 10
f 10 14 15 11
f 11 15 16 12
f 12 16 13 9
o TallBox
v 0.45 -2 -0.25
v 1.5 -2 0.1
v 1.15 -2 1.25
v 0.1 -2 0.9
v 0.45 0.65 -0.25
v 1.5 0.65 0.1
v 1.15 0.65 1.25
v 0.1 0.65 0.9
f 17 18 19 20
f 21 24 23 22
f 17 21 22 18
f 18 22 23 19
f 19 23 24 20
f 20 24 21 17
