# Original ArmOS (2,3) torus knot
o TorusKnot
v 2.280000000 0.000000000 0.000000000
vn 1.000000000 0.000000000 0.000000000
v 2.239893569 0.043524298 -0.115506756
vn 0.809016994 0.207258562 -0.550032173
v 2.134893569 0.070423793 -0.186893858
vn 0.309016994 0.335351397 -0.889970751
v 2.005106431 0.070423793 -0.186893858
vn -0.309016994 0.335351397 -0.889970751
v 1.900106431 0.043524298 -0.115506756
vn -0.809016994 0.207258562 -0.550032173
v 1.860000000 0.000000000 -0.000000000
vn -1.000000000 0.000000000 -0.000000000
v 1.900106431 -0.043524298 0.115506756
vn -0.809016994 -0.207258562 0.550032173
v 2.005106431 -0.070423793 0.186893858
vn -0.309016994 -0.335351397 0.889970751
v 2.134893569 -0.070423793 0.186893858
vn 0.309016994 -0.335351397 0.889970751
v 2.239893569 -0.043524298 0.115506756
vn 0.809016994 -0.207258562 0.550032173
v 2.223349062 0.412911593 0.134585903
vn 0.963078089 0.269222203 -0.000000000
v 2.173319570 0.442908661 0.018646579
vn 0.724842411 0.412065384 -0.552092020
v 2.065148393 0.439852785 -0.053007864
vn 0.209741569 0.397513593 -0.893303654
v 1.940153244 0.404911206 -0.053007864
vn -0.385473424 0.231125121 -0.893303654
v 1.846078022 0.351430419 0.018646579
vn -0.833450671 -0.023545292 -0.552092020
v 1.818856265 0.299838268 0.134585903
vn -0.963078089 -0.269222203 -0.000000000
v 1.868885757 0.269841200 0.250525228
vn -0.724842411 -0.412065384 0.552092020
v 1.977056934 0.272897076 0.322179671
vn -0.209741569 -0.397513593 0.893303654
v 2.102052082 0.307838655 0.322179671
vn 0.385473424 -0.231125121 0.893303654
v 2.196127304 0.361319442 0.250525228
vn 0.833450671 0.023545292 0.552092020
v 2.059642306 0.792414009 0.260000000
vn 0.856875948 0.515522656 -0.000000000
v 2.005255649 0.805015175 0.142833438
vn 0.597891871 0.575528208 -0.557936011
v 1.902910375 0.771451576 0.070420520
vn 0.110533420 0.415701545 -0.902759430
v 1.791698898 0.704543366 0.070420520
vn -0.419045040 0.097091022 -0.902759430
v 1.714100224 0.629847207 0.142833438
vn -0.788562538 -0.258604972 -0.557936011
v 1.699754407 0.575894493 0.260000000
vn -0.856875948 -0.515522656 -0.000000000
v 1.754141064 0.563293328 0.377166562
vn -0.597891871 -0.575528208 0.557936011
v 1.856486338 0.596856927 0.449579480
vn -0.110533420 -0.415701545 0.902759430
v 1.967697815 0.663765137 0.449579480
vn 0.419045040 -0.097091022 0.902759430
v 2.045296489 0.738461295 0.377166562
vn 0.788562538 0.258604972 0.557936011
v 1.806531047 1.110025156 0.367695526
vn 0.694085735 0.719892348 -0.000000000
v 1.755020306 1.103977640 0.248721696
vn 0.448796493 0.691094651 -0.566542047
v 1.667510314 1.042495443 0.175191826
vn 0.032082244 0.398322287 -0.916684289
v 1.577426913 0.949062676 0.175191826
vn -0.396886331 -0.046595652 -0.916684289
v 1.519178901 0.859367480 0.248721696
vn -0.674257818 -0.473715636 -0.566542047
v 1.515015038 0.807670370 0.367695526
vn -0.694085735 -0.719892348 -0.000000000
v 1.566525779 0.813717886 0.486669356
vn -0.448796493 -0.691094651 0.566542047
v 1.654035771 0.875200083 0.560199227
vn -0.032082244 -0.398322287 0.916684289
v 1.744119172 0.968632850 0.560199227
vn 0.396886331 0.046595652 0.916684289
v 1.802367184 1.058328047 0.486669356
vn 0.674257818 0.473715636 0.566542047
v 1.490058628 1.346158422 0.450333210
vn 0.492943743 0.870061185 -0.000000000
v 1.449037146 1.323303538 0.329339023
vn 0.297603350 0.761228401 -0.576162796
v 1.384144047 1.239388344 0.254560503
vn -0.011411407 0.361632241 -0.932250987
v 1.320166289 1.126465593 0.254560503
vn -0.316067395 -0.176095144 -0.932250987
v 1.281541202 1.027667938 0.329339023
vn -0.499996381 -0.646560169 -0.576162796
v 1.283022256 0.980732725 0.450333210
vn -0.492943743 -0.870061185 -0.000000000
v 1.324043738 1.003587609 0.571327397
vn -0.297603350 -0.761228401 0.576162796
v 1.388936838 1.087502803 0.646105917
vn 0.011411407 -0.361632241 0.932250987
v 1.452914595 1.200425554 0.646105917
vn 0.316067395 0.176095144 0.932250987
v 1.491539682 1.299223209 0.571327397
vn 0.499996381 0.646560169 0.576162796
v 1.140375510 1.492429605 0.502281430
vn 0.274021734 0.961723499 -0.000000000
v 1.116476051 1.457536562 0.379578567
vn 0.160214786 0.795566149 -0.584299345
v 1.079725306 1.358828880 0.303744028
vn -0.014788765 0.325529570 -0.945416200
v 1.044160809 1.234009540 0.303744028
vn -0.184143510 -0.268848240 -0.945416200
v 1.023366991 1.130755287 0.379578567
vn -0.283161693 -0.760535161 -0.584299345
v 1.025286382 1.088505735 0.502281430
vn -0.274021734 -0.961723499 -0.000000000
v 1.049185841 1.123398779 0.624984292
vn -0.160214786 -0.795566149 0.584299345
v 1.085936587 1.222106461 0.700818832
vn 0.014788765 -0.325529570 0.945416200
v 1.121501083 1.346925801 0.700818832
vn 0.184143510 0.268848240 0.945416200
v 1.142294902 1.450180054 0.624984292
vn 0.283161693 0.760535161 0.584299345
v 0.787042139 1.551993822 0.520000000
vn 0.057343517 0.998354507 -0.000000000
v 0.784742295 1.511953386 0.396565097
vn 0.046391880 0.807685762 -0.587785252
v 0.778721225 1.407126163 0.320278132
vn 0.017720121 0.308508509 -0.951056516
v 0.771278775 1.277552589 0.320278132
vn -0.017720121 -0.308508509 -0.951056516
v 0.765257705 1.172725366 0.396565097
vn -0.046391880 -0.807685762 -0.587785252
v 0.762957861 1.132684929 0.520000000
vn -0.057343517 -0.998354507 -0.000000000
v 0.765257705 1.172725366 0.643434903
vn -0.046391880 -0.807685762 0.587785252
v 0.771278775 1.277552589 0.719721868
vn -0.017720121 -0.308508509 0.951056516
v 0.778721225 1.407126163 0.719721868
vn 0.017720121 0.308508509 0.951056516
v 0.784742295 1.511953386 0.643434903
vn 0.046391880 0.807685762 0.587785252
v 0.454778663 1.537997086 0.502281430
vn -0.139626045 0.990204306 0.000000000
v 0.475646619 1.500436432 0.379813365
vn -0.040254825 0.811344050 -0.583181259
v 0.499743530 1.397795550 0.304123939
vn 0.074492369 0.322577944 -0.943607099
v 0.517865194 1.269279768 0.304123939
vn 0.160786010 -0.289401973 -0.943607099
v 0.523089753 1.163977746 0.379813365
vn 0.185664860 -0.790840173 -0.583181259
v 0.513421602 1.122111278 0.502281430
vn 0.139626045 -0.990204306 -0.000000000
v 0.492553646 1.159671931 0.624749494
vn 0.040254825 -0.811344050 0.583181259
v 0.468456735 1.262312814 0.700438920
vn -0.074492369 -0.322577944 0.943607099
v 0.450335070 1.390828596 0.700438920
vn -0.160786010 0.289401973 0.943607099
v 0.445110511 1.496130618 0.624749494
vn -0.185664860 0.790840173 0.583181259
v 0.160374290 1.470529427 0.450333210
vn -0.303008856 0.952987740 0.000000000
v 0.202959389 1.441984706 0.331100625
vn -0.100222665 0.817060500 -0.567774213
v 0.253583636 1.347901224 0.257410835
vn 0.140845177 0.369043919 -0.918677975
v 0.292910288 1.224215673 0.257410835
vn 0.328114948 -0.219934896 -0.918677975
v 0.305917901 1.118171730 0.331100625
vn 0.390055962 -0.724906055 -0.567774213
v 0.287638009 1.070274576 0.450333210
vn 0.303008856 -0.952987740 -0.000000000
v 0.245052909 1.098819296 0.569565795
vn 0.100222665 -0.817060500 0.567774213
v 0.194428662 1.192902778 0.643255585
vn -0.140845177 -0.369043919 0.918677975
v 0.155102010 1.316588329 0.643255585
vn -0.328114948 0.219934896 0.918677975
v 0.142094397 1.422632273 0.569565795
vn -0.390055962 0.724906055 0.567774213
v -0.088779361 1.372615338 0.367695526
vn -0.422758862 0.906242211 0.000000000
v -0.028265858 1.356588926 0.254003085
vn -0.134599323 0.829925961 -0.541392576
v 0.043044242 1.273991776 0.183737293
vn 0.204972583 0.436606203 -0.875991589
v 0.097912905 1.156373194 0.183737293
vn 0.466251929 -0.123482286 -0.875991589
v 0.115382166 1.048659479 0.254003085
vn 0.549438885 -0.636404738 -0.541392576
v 0.088779361 0.991993610 0.367695526
vn 0.422758862 -0.906242211 -0.000000000
v 0.028265858 1.008020022 0.481387967
vn 0.134599323 -0.829925961 0.541392576
v -0.043044242 1.090617171 0.551653760
vn -0.204972583 -0.436606203 0.875991589
v -0.097912905 1.208235754 0.551653760
vn -0.466251929 0.123482286 0.875991589
v -0.115382166 1.315949469 0.481387967
vn -0.549438885 0.636404738 0.541392576
v -0.294450563 1.265686121 0.260000000
vn -0.492835377 0.870122572 0.000000000
v -0.220871871 1.261268066 0.153176042
vn -0.142460654 0.849084218 -0.508685514
v -0.135866003 1.188742537 0.087155205
vn 0.262329197 0.503724552 -0.823070451
v -0.071902310 1.075811818 0.087155205
vn 0.566918211 -0.034040772 -0.823070451
v -0.053412749 0.965611608 0.153176042
vn 0.654963737 -0.558803678 -0.508685514
v -0.087459705 0.900234640 0.260000000
vn 0.492835377 -0.870122572 -0.000000000
v -0.161038397 0.904652695 0.366823958
vn 0.142460654 -0.849084218 0.508685514
v -0.246044266 0.977178225 0.432844795
vn -0.262329197 -0.503724552 0.823070451
v -0.310007958 1.090108943 0.432844795
vn -0.566918211 0.034040772 0.823070451
v -0.328497519 1.200309153 0.366823958
vn -0.654963737 0.558803678 0.508685514
v -0.466204261 1.164715222 0.134585903
vn -0.513635262 0.858008635 0.000000000
v -0.384515164 1.166873673 0.033754690
vn -0.124639563 0.868286972 -0.480148636
v -0.292828371 1.099384341 -0.028562427
vn 0.311964213 0.546909199 -0.776896813
v -0.226165120 0.988025856 -0.028562427
vn 0.629408263 0.016630700 -0.776896813
v -0.209988508 0.875333375 0.033754690
vn 0.706439749 -0.520000161 -0.480148636
v -0.250477450 0.804351596 0.134585903
vn 0.513635262 -0.858008635 -0.000000000
v -0.332166547 0.802193145 0.235417117
vn 0.124639563 -0.868286972 0.480148636
v -0.423853340 0.869682477 0.297734234
vn -0.311964213 -0.546909199 0.776896813
v -0.490516591 0.981040962 0.297734234
vn -0.629408263 -0.016630700 0.776896813
v -0.506693203 1.093733443 0.235417117
vn -0.706439749 0.520000161 0.480148636
v -0.620000000 1.073871501 0.000000000
vn -0.500000000 0.866025404 0.000000000
v -0.535411807 1.076397599 -0.098403036
vn -0.097199082 0.878054443 -0.468585888
v -0.443026998 1.008492437 -0.159219457
vn 0.342728581 0.554696529 -0.758187893
v -0.378133429 0.896093479 -0.159219457
vn 0.651745576 0.019463394 -0.758187893
v -0.365518238 0.782133306 -0.098403036
vn 0.711817912 -0.523204096 -0.468585888
v -0.410000000 0.710140831 0.000000000
vn 0.500000000 -0.866025404 -0.000000000
v -0.494588193 0.707614733 0.098403036
vn 0.097199082 -0.878054443 0.468585888
v -0.586973002 0.775519895 0.159219457
vn -0.342728581 -0.554696529 0.758187893
v -0.651866571 0.887918853 0.159219457
vn -0.651745576 -0.019463394 0.758187893
v -0.664481762 1.001879026 0.098403036
vn -0.711817912 0.523204096 0.468585888
v -0.775570841 0.986102344 -0.134585903
vn -0.486239643 0.873825503 0.000000000
v -0.693854345 0.985675907 -0.235417117
vn -0.097113475 0.871794850 -0.480148636
v -0.604348100 0.915320310 -0.297734234
vn 0.329106740 0.536768195 -0.776896813
v -0.541240449 0.801908999 -0.297734234
vn 0.629619366 -0.003285666 -0.776896813
v -0.528636369 0.688761241 -0.235417117
vn 0.689638794 -0.542084514 -0.480148636
v -0.571350190 0.619095633 -0.134585903
vn 0.486239643 -0.873825503 -0.000000000
v -0.653066686 0.619522070 -0.033754690
vn 0.097113475 -0.871794850 0.480148636
v -0.742572931 0.689877668 0.028562427
vn -0.329106740 -0.536768195 0.776896813
v -0.805680582 0.803288979 0.028562427
vn -0.629619366 0.003285666 0.776896813
v -0.818284662 0.916436737 -0.033754690
vn -0.689638794 0.542084514 0.480148636
v -0.948891052 0.887844728 -0.260000000
vn -0.507130563 0.861869243 0.000000000
v -0.875249459 0.884641773 -0.366823958
vn -0.156456312 0.846617074 -0.508685514
v -0.789058058 0.813529239 -0.432844795
vn 0.253978933 0.507985959 -0.823070451
v -0.723239034 0.701669697 -0.432844795
vn 0.567402857 -0.024678527 -0.823070451
v -0.702933017 0.591789690 -0.366823958
vn 0.664098176 -0.547916654 -0.508685514
v -0.735896215 0.525859646 -0.260000000
vn 0.507130563 -0.861869243 -0.000000000
v -0.809537808 0.529062602 -0.153176042
vn 0.156456312 -0.846617074 0.508685514
v -0.895729210 0.600175136 -0.087155205
vn -0.253978933 -0.507985959 0.823070451
v -0.961548234 0.712034678 -0.087155205
vn -0.567402857 0.024678527 0.823070451
v -0.981854251 0.821914685 -0.153176042
vn -0.664098176 0.547916654 0.508685514
v -1.144330072 0.763192851 -0.367695526
vn -0.573449345 0.819241020 0.000000000
v -1.081954587 0.757898621 -0.481387967
vn -0.276423227 0.794030401 -0.541392576
v -0.997406404 0.688912940 -0.551653760
vn 0.126187168 0.465527158 -0.875991589
v -0.922980055 0.582585993 -0.551653760
vn 0.480598354 -0.040791637 -0.875991589
v -0.887103875 0.479531060 -0.481387967
vn 0.651437304 -0.531529414 -0.541392576
v -0.903481347 0.419111623 -0.367695526
vn 0.573449345 -0.819241020 -0.000000000
v -0.965856832 0.424405853 -0.254003085
vn 0.276423227 -0.794030401 0.541392576
v -1.050405015 0.493391534 -0.183737293
vn -0.126187168 -0.465527158 0.875991589
v -1.124831364 0.599718481 -0.183737293
vn -0.480598354 0.040791637 0.875991589
v -1.160707543 0.702773414 -0.254003085
vn -0.651437304 0.531529414 0.541392576
v -1.353702985 0.596376505 -0.450333210
vn -0.673807165 0.738907237 0.000000000
v -1.303082887 0.588258779 -0.569565795
vn -0.432759078 0.700251400 -0.567774213
v -1.217749945 0.523971884 -0.643255585
vn -0.026411733 0.394123329 -0.918677975
v -1.130298441 0.428071229 -0.643255585
vn 0.390023997 -0.062546458 -0.918677975
v -1.074131879 0.337187604 -0.569565795
vn 0.657483816 -0.495325624 -0.567774213
v -1.070703976 0.286035465 -0.450333210
vn 0.673807165 -0.738907237 -0.000000000
v -1.121324074 0.294153191 -0.331100625
vn 0.432759078 -0.700251400 0.567774213
v -1.206657017 0.358440086 -0.257410835
vn 0.026411733 -0.394123329 0.918677975
v -1.294108520 0.454340741 -0.257410835
vn -0.390023997 0.062546458 0.918677975
v -1.350275082 0.545224366 -0.331100625
vn -0.657483816 0.495325624 0.567774213
v -1.559333879 0.375148668 -0.502281430
vn -0.787729062 0.616021855 0.000000000
v -1.518242378 0.362588299 -0.624749494
vn -0.592055250 0.556210572 -0.583181259
v -1.429660432 0.305412687 -0.700438920
vn -0.170236455 0.283945756 -0.943607099
v -1.327423331 0.225460974 -0.700438920
vn 0.316606879 -0.096776688 -0.943607099
v -1.250582175 0.153271996 -0.624749494
vn 0.682517146 -0.440533727 -0.583181259
v -1.228487673 0.116419489 -0.502281430
vn 0.787729062 -0.616021855 -0.000000000
v -1.269579174 0.128979858 -0.379813365
vn 0.592055250 -0.556210572 0.583181259
v -1.358161120 0.186155470 -0.304123939
vn 0.170236455 -0.283945756 0.943607099
v -1.460398221 0.266107183 -0.304123939
vn -0.316606879 0.096776688 0.943607099
v -1.537239377 0.338296161 -0.379813365
vn -0.682517146 0.440533727 0.583181259
v -1.737587146 0.094398425 -0.520000000
vn -0.893272123 0.449516311 0.000000000
v -1.701761189 0.076369930 -0.643434903
vn -0.722672328 0.363666335 -0.587785252
v -1.607967616 0.029170718 -0.719721868
vn -0.276036267 0.138908179 -0.951056516
v -1.492032384 -0.029170718 -0.719721868
vn 0.276036267 -0.138908179 -0.951056516
v -1.398238811 -0.076369930 -0.643434903
vn 0.722672328 -0.363666335 -0.587785252
v -1.362412854 -0.094398425 -0.520000000
vn 0.893272123 -0.449516311 -0.000000000
v -1.398238811 -0.076369930 -0.396565097
vn 0.722672328 -0.363666335 0.587785252
v -1.492032384 -0.029170718 -0.320278132
vn 0.276036267 -0.138908179 0.951056516
v -1.607967616 0.029170718 -0.320278132
vn -0.276036267 0.138908179 0.951056516
v -1.701761189 0.076369930 -0.396565097
vn -0.722672328 0.363666335 0.587785252
v -1.862669707 -0.241379359 -0.502281430
vn -0.969887849 0.243551967 0.000000000
v -1.827040218 -0.264166376 -0.624984292
vn -0.800223616 0.135042361 -0.584299345
v -1.727222502 -0.297785528 -0.700818832
vn -0.324901161 -0.025048837 -0.945416200
v -1.601343534 -0.329395441 -0.700818832
vn 0.274522495 -0.175572231 -0.945416200
v -1.497484802 -0.346922202 -0.624984292
vn 0.769087889 -0.259033000 -0.584299345
v -1.455316810 -0.343671185 -0.502281430
vn 0.969887849 -0.243551967 -0.000000000
v -1.490946299 -0.320884168 -0.379578567
vn 0.800223616 -0.135042361 0.584299345
v -1.590764015 -0.287265016 -0.303744028
vn 0.324901161 0.025048837 0.945416200
v -1.716642982 -0.255655104 -0.303744028
vn -0.274522495 0.175572231 0.945416200
v -1.820501715 -0.238128342 -0.379578567
vn -0.769087889 0.259033000 0.584299345
v -1.910836705 -0.617349414 -0.450333210
vn -0.999966961 0.008128788 0.000000000
v -1.870930145 -0.642099651 -0.571327397
vn -0.809935722 -0.109729483 -0.576162796
v -1.766056322 -0.658048172 -0.646105917
vn -0.310536566 -0.185674822 -0.932250987
v -1.636273473 -0.659103184 -0.646105917
vn 0.307477004 -0.190698689 -0.932250987
v -1.531154234 -0.644861709 -0.571327397
vn 0.808044809 -0.122882139 -0.576162796
v -1.490850582 -0.620763505 -0.450333210
vn 0.999966961 -0.008128788 -0.000000000
v -1.530757142 -0.596013268 -0.329339023
vn 0.809935722 0.109729483 0.576162796
v -1.635630965 -0.580064747 -0.254560503
vn 0.310536566 0.185674822 0.932250987
v -1.765413814 -0.579009735 -0.254560503
vn -0.307477004 0.190698689 0.932250987
v -1.870533053 -0.593251210 -0.329339023
vn -0.808044809 0.122882139 0.576162796
v -1.864575507 -1.009489201 -0.367695526
vn -0.970487929 -0.241149705 0.000000000
v -1.817722566 -1.031731745 -0.486669356
vn -0.747378684 -0.347066581 -0.566542047
v -1.710920241 -1.026135085 -0.560199227
vn -0.238796184 -0.320415819 -0.916684289
v -1.584963391 -0.994836955 -0.560199227
vn 0.360998341 -0.171377105 -0.916684289
v -1.487963251 -0.949792177 -0.486669356
vn 0.822903771 0.043121838 -0.566542047
v -1.456970577 -0.908206325 -0.367695526
vn 0.970487929 0.241149705 -0.000000000
v -1.503823519 -0.885963781 -0.248721696
vn 0.747378684 0.347066581 0.566542047
v -1.610625844 -0.891560441 -0.175191826
vn 0.238796184 0.320415819 0.916684289
v -1.736582694 -0.922858571 -0.175191826
vn -0.360998341 0.171377105 0.916684289
v -1.833582834 -0.967903349 -0.248721696
vn -0.822903771 -0.043121838 0.566542047
v -1.716071815 -1.387495555 -0.260000000
vn -0.874893691 -0.484315011 0.000000000
v -1.662174486 -1.402048070 -0.377166562
vn -0.618239744 -0.553612704 -0.557936011
v -1.558686378 -1.372193726 -0.449579480
vn -0.125439229 -0.411449161 -0.902759430
v -1.445136430 -1.309335867 -0.449579480
vn 0.415274809 -0.112126023 -0.902759430
v -1.364896863 -1.237484059 -0.377166562
vn 0.797367984 0.230025445 -0.557936011
v -1.348616465 -1.184083250 -0.260000000
vn 0.874893691 0.484315011 -0.000000000
v -1.402513794 -1.169530735 -0.142833438
vn 0.618239744 0.553612704 0.557936011
v -1.506001902 -1.199385079 -0.070420520
vn 0.125439229 0.411449161 0.902759430
v -1.619551850 -1.262242938 -0.070420520
vn -0.415274809 0.112126023 0.902759430
v -1.699791417 -1.334094746 -0.142833438
vn -0.797367984 -0.230025445 0.557936011
v -1.469266460 -1.719020973 -0.134585903
vn -0.714692312 -0.699438989 0.000000000
v -1.410975467 -1.721242315 -0.250525228
vn -0.437116156 -0.710016808 -0.552092020
v -1.317622137 -1.666511176 -0.322179671
vn 0.007423514 -0.449392338 -0.893303654
v -1.224864267 -1.575732992 -0.322179671
vn 0.449127654 -0.017115270 -0.893303654
v -1.168132212 -1.483581942 -0.250525228
vn 0.719280296 0.421699250 -0.552092020
v -1.169095689 -1.425256597 -0.134585903
vn 0.714692312 0.699438989 -0.000000000
v -1.227386682 -1.423035255 -0.018646579
vn 0.437116156 0.710016808 0.552092020
v -1.320740013 -1.477766394 0.053007864
vn -0.007423514 0.449392338 0.893303654
v -1.413497882 -1.568544578 0.053007864
vn -0.449127654 0.017115270 0.893303654
v -1.470229937 -1.660695627 -0.018646579
vn -0.719280296 -0.421699250 0.552092020
v -1.140000000 -1.974537921 -0.000000000
vn -0.500000000 -0.866025404 0.000000000
v -1.082253637 -1.961566881 -0.115506756
vn -0.225017318 -0.804258550 -0.550032173
v -1.006457990 -1.884083962 -0.186893858
vn 0.135914332 -0.435292266 -0.889970751
v -0.941564421 -1.771685003 -0.186893858
vn 0.444931326 0.099940869 -0.889970751
v -0.912360068 -1.667302588 -0.115506756
vn 0.583999677 0.596999988 -0.550032173
v -0.930000000 -1.610807251 -0.000000000
vn 0.500000000 0.866025404 -0.000000000
v -0.987746363 -1.623778290 0.115506756
vn 0.225017318 0.804258550 0.550032173
v -1.063542010 -1.701261210 0.186893858
vn -0.135914332 0.435292266 0.889970751
v -1.128435579 -1.813660168 0.186893858
vn -0.444931326 -0.099940869 0.889970751
v -1.157639932 -1.918042583 0.115506756
vn -0.583999677 -0.596999988 0.550032173
v -0.754082602 -2.131932566 0.134585903
vn -0.248385777 -0.968661192 0.000000000
v -0.703089633 -2.103604288 0.018646579
vn -0.005562115 -0.833764633 -0.552092020
v -0.651650511 -2.008397363 -0.053007864
vn 0.239386086 -0.380398323 -0.893303654
v -0.619413232 -1.882677600 -0.053007864
vn 0.392896938 0.218267217 -0.893303654
v -0.618691341 -1.774465674 0.018646579
vn 0.396334515 0.733562099 -0.552092020
v -0.649760576 -1.725094865 0.134585903
vn 0.248385777 0.968661192 -0.000000000
v -0.700753545 -1.753423142 0.250525228
vn 0.005562115 0.833764633 0.552092020
v -0.752192667 -1.848630067 0.322179671
vn -0.239386086 0.380398323 0.893303654
v -0.784429946 -1.974349831 0.322179671
vn -0.392896938 -0.218267217 0.893303654
v -0.785151837 -2.082561756 0.250525228
vn -0.396334515 -0.733562099 0.552092020
v -0.343570491 -2.179909564 0.260000000
vn 0.018017742 -0.999837667 0.000000000
v -0.305464233 -2.139109921 0.142833438
vn 0.199476113 -0.805553653 -0.557936011
v -0.283358525 -2.033694514 0.070420520
vn 0.304741388 -0.303575523 -0.902759430
v -0.285696996 -1.903928445 0.070420520
vn 0.293605811 0.314358139 -0.902759430
v -0.311586430 -1.799377942 0.142833438
vn 0.170322793 0.812217676 -0.557936011
v -0.351137943 -1.759977744 0.260000000
vn -0.018017742 0.999837667 -0.000000000
v -0.389244200 -1.800777387 0.377166562
vn -0.199476113 0.805553653 0.557936011
v -0.411349908 -1.906192794 0.449579480
vn -0.304741388 0.303575523 0.902759430
v -0.409011437 -2.035958863 0.449579480
vn -0.293605811 -0.314358139 0.902759430
v -0.383122003 -2.140509366 0.377166562
vn -0.170322793 -0.812217676 0.557936011
v 0.058044461 -2.119514357 0.367695526
vn 0.276402194 -0.961042053 0.000000000
v 0.078562528 -2.071880989 0.248721696
vn 0.374107278 -0.734216489 -0.566542047
v 0.069072380 -1.965354014 0.175191826
vn 0.328916097 -0.226945182 -0.916684289
v 0.033198931 -1.840623117 0.175191826
vn 0.158090147 0.367011471 -0.916684289
v -0.015355382 -1.745331261 0.248721696
vn -0.073120866 0.820782217 -0.566542047
v -0.058044461 -1.715876695 0.367695526
vn -0.276402194 0.961042053 -0.000000000
v -0.078562528 -1.763510063 0.486669356
vn -0.374107278 0.734216489 0.566542047
v -0.069072380 -1.870037038 0.560199227
vn -0.328916097 0.226945182 0.916684289
v -0.033198931 -1.994767935 0.560199227
vn -0.158090147 -0.367011471 0.916684289
v 0.015355382 -2.090059792 0.486669356
vn 0.073120866 -0.820782217 0.566542047
v 0.420778077 -1.963507836 0.450333210
vn 0.507023218 -0.861932397 0.000000000
v 0.421495908 -1.916554748 0.329339023
vn 0.510441458 -0.638346262 -0.576162796
v 0.381269768 -1.818398079 0.254560503
vn 0.318888411 -0.170933552 -0.932250987
v 0.315464676 -1.706530340 0.254560503
vn 0.005530830 0.361769965 -0.932250987
v 0.249215940 -1.623681206 0.329339023
vn -0.309939341 0.756289652 -0.576162796
v 0.207828326 -1.601496230 0.450333210
vn -0.507023218 0.861932397 -0.000000000
v 0.207110495 -1.648449318 0.571327397
vn -0.510441458 0.638346262 0.576162796
v 0.247336635 -1.746605987 0.646105917
vn -0.318888411 0.170933552 0.932250987
v 0.313141727 -1.858473726 0.646105917
vn -0.005530830 -0.361769965 0.932250987
v 0.379390463 -1.941322860 0.571327397
vn 0.309939341 -0.756289652 0.576162796
v 0.722294196 -1.733808964 0.502281430
vn 0.695866115 -0.718171532 0.000000000
v 0.704025664 -1.695664904 0.379578567
vn 0.608873102 -0.536533149 -0.584299345
v 0.636917677 -1.614483984 0.303744028
vn 0.289311260 -0.149957339 -0.945416200
v 0.546603205 -1.521274556 0.303744028
vn -0.140757651 0.293897078 -0.945416200
v 0.467579308 -1.451639455 0.379578567
vn -0.517061923 0.625492800 -0.584299345
v 0.430030428 -1.432176921 0.502281430
vn -0.695866115 0.718171532 -0.000000000
v 0.448298961 -1.470320981 0.624984292
vn -0.608873102 0.536533149 0.584299345
v 0.515406948 -1.551501901 0.700818832
vn -0.289311260 0.149957339 0.945416200
v 0.605721419 -1.644711329 0.700818832
vn 0.140757651 -0.293897078 0.945416200
v 0.684745316 -1.714346431 0.624984292
vn 0.517061923 -0.625492800 0.584299345
v 0.950545007 -1.457595397 0.520000000
vn 0.835928606 -0.548838196 0.000000000
v 0.917018894 -1.435583456 0.396565097
vn 0.676280449 -0.444019428 -0.587785252
v 0.829246391 -1.377955445 0.320278132
vn 0.258316145 -0.169600330 -0.951056516
v 0.720753609 -1.306723307 0.320278132
vn -0.258316145 0.169600330 -0.951056516
v 0.632981106 -1.249095296 0.396565097
vn -0.676280449 0.444019428 -0.587785252
v 0.599454993 -1.227083355 0.520000000
vn -0.835928606 0.548838196 -0.000000000
v 0.632981106 -1.249095296 0.643434903
vn -0.676280449 0.444019428 0.587785252
v 0.720753609 -1.306723307 0.719721868
vn -0.258316145 0.169600330 0.951056516
v 0.829246391 -1.377955445 0.719721868
vn 0.258316145 -0.169600330 0.951056516
v 0.917018894 -1.435583456 0.643434903
vn 0.676280449 -0.444019428 0.587785252
v 1.104555216 -1.162848418 0.502281430
vn 0.927355106 -0.374182451 0.000000000
v 1.061592758 -1.162140271 0.379813365
vn 0.722771972 -0.370810324 -0.583181259
v 0.960654691 -1.131688367 0.304123939
vn 0.242114510 -0.225801256 -0.943607099
v 0.840295926 -1.083124298 0.304123939
vn -0.331022465 0.005456217 -0.943607099
v 0.746489421 -1.034997887 0.379813365
vn -0.777720110 0.234629601 -0.583181259
v 0.715066072 -1.005691789 0.502281430
vn -0.927355106 0.374182451 -0.000000000
v 0.758028530 -1.006399935 0.624749494
vn -0.722771972 0.370810324 0.583181259
v 0.858966597 -1.036851840 0.700438920
vn -0.242114510 0.225801256 0.943607099
v 0.979325362 -1.085415909 0.700438920
vn 0.331022465 -0.005456217 0.943607099
v 1.073131867 -1.133542320 0.624749494
vn 0.777720110 -0.234629601 0.583181259
v 1.193328696 -0.874152922 0.450333210
vn 0.976816021 -0.214080504 0.000000000
v 1.147315693 -0.896760340 0.331100625
vn 0.757706482 -0.321734876 -0.567774213
v 1.040524884 -0.893560483 0.257410835
vn 0.249178820 -0.306497460 -0.918677975
v 0.913746729 -0.865775587 0.257410835
vn -0.354526681 -0.174188433 -0.918677975
v 0.815406173 -0.824018539 0.331100625
vn -0.822815040 0.024654656 -0.567774213
v 0.783065967 -0.784239111 0.450333210
vn -0.976816021 0.214080504 -0.000000000
v 0.829078970 -0.761631693 0.569565795
vn -0.757706482 0.321734876 0.567774213
v 0.935869779 -0.764831550 0.643255585
vn -0.249178820 0.306497460 0.918677975
v 1.062647935 -0.792616446 0.643255585
vn 0.354526681 0.174188433 0.918677975
v 1.160988490 -0.834373494 0.569565795
vn 0.822815040 -0.024654656 0.567774213
v 1.233109433 -0.609422487 0.367695526
vn 0.996208208 -0.087001191 0.000000000
v 1.188973401 -0.653815512 0.254003085
vn 0.786036627 -0.298396548 -0.541392576
v 1.081787121 -0.674273296 0.183737293
vn 0.275625772 -0.395814565 -0.875991589
v 0.952492110 -0.662981660 0.183737293
vn -0.340064761 -0.342044872 -0.875991589
v 0.850474666 -0.624253626 0.254003085
vn -0.825862113 -0.157625664 -0.541392576
v 0.814701986 -0.572881987 0.367695526
vn -0.996208208 0.087001191 -0.000000000
v 0.858838018 -0.528488962 0.481387967
vn -0.786036627 0.298396548 0.541392576
v 0.966024297 -0.508031178 0.551653760
vn -0.275625772 0.395814565 0.875991589
v 1.095319309 -0.519322814 0.551653760
vn 0.340064761 0.342044872 0.875991589
v 1.197336753 -0.558050848 0.481387967
vn 0.825862113 0.157625664 0.541392576
v 1.243341615 -0.377841392 0.260000000
vn 0.999965941 -0.008253330 0.000000000
v 1.202726122 -0.439353382 0.153176042
vn 0.806558830 -0.301167564 -0.508685514
v 1.097414237 -0.476707858 0.087155205
vn 0.305073660 -0.479046025 -0.823070451
v 0.967631519 -0.475636682 0.087155205
vn -0.312939279 -0.473945187 -0.823070451
v 0.862950558 -0.436549006 0.153176042
vn -0.811420050 -0.287813396 -0.508685514
v 0.823355920 -0.374374994 0.260000000
vn -0.999965941 0.008253330 -0.000000000
v 0.863971414 -0.312863005 0.366823958
vn -0.806558830 0.301167564 0.508685514
v 0.969283299 -0.275508528 0.432844795
vn -0.305073660 0.479046025 0.823070451
v 1.099066016 -0.276579704 0.432844795
vn 0.312939279 0.473945187 0.823070451
v 1.203746978 -0.315667380 0.366823958
vn 0.811420050 0.287813396 0.508685514
v 1.241775101 -0.178612878 0.134585903
vn 0.999874906 0.015816868 -0.000000000
v 1.202799826 -0.250436937 0.033754690
vn 0.814278357 -0.326202458 -0.480148636
v 1.098508953 -0.296095362 -0.028562427
vn 0.317655153 -0.543623533 -0.776896813
v 0.968738051 -0.298148188 -0.028562427
vn -0.300301523 -0.553398895 -0.776896813
v 0.863055194 -0.255811305 0.033754690
vn -0.803553224 -0.351794689 -0.480148636
v 0.821827641 -0.185255963 0.134585903
vn -0.999874906 -0.015816868 -0.000000000
v 0.860802916 -0.113431904 0.235417117
vn -0.814278357 0.326202458 0.480148636
v 0.965093789 -0.067773478 0.297734234
vn -0.317655153 0.543623533 0.776896813
v 1.094864691 -0.065720652 0.297734234
vn 0.300301523 0.553398895 0.776896813
v 1.200547548 -0.108057536 0.235417117
vn 0.803553224 0.351794689 0.480148636
v 1.240000000 -0.000000000 0.000000000
vn 1.000000000 -0.000000000 0.000000000
v 1.199893569 -0.074518573 -0.098403036
vn 0.809016994 -0.354850347 -0.468585888
v 1.094893569 -0.120573584 -0.159219457
vn 0.309016994 -0.574159922 -0.758187893
v 0.965106431 -0.120573584 -0.159219457
vn -0.309016994 -0.574159922 -0.758187893
v 0.860106431 -0.074518573 -0.098403036
vn -0.809016994 -0.354850347 -0.468585888
v 0.820000000 -0.000000000 0.000000000
vn -1.000000000 -0.000000000 -0.000000000
v 0.860106431 0.074518573 0.098403036
vn -0.809016994 0.354850347 0.468585888
v 0.965106431 0.120573584 0.159219457
vn -0.309016994 0.574159922 0.758187893
v 1.094893569 0.120573584 0.159219457
vn 0.309016994 0.574159922 0.758187893
v 1.199893569 0.074518573 0.098403036
vn 0.809016994 0.354850347 0.468585888
v 1.241775101 0.178612878 -0.134585903
vn 0.999874906 -0.015816868 0.000000000
v 1.200547548 0.108057536 -0.235417117
vn 0.803553224 -0.351794689 -0.480148636
v 1.094864691 0.065720652 -0.297734234
vn 0.300301523 -0.553398895 -0.776896813
v 0.965093789 0.067773478 -0.297734234
vn -0.317655153 -0.543623533 -0.776896813
v 0.860802916 0.113431904 -0.235417117
vn -0.814278357 -0.326202458 -0.480148636
v 0.821827641 0.185255963 -0.134585903
vn -0.999874906 0.015816868 -0.000000000
v 0.863055194 0.255811305 -0.033754690
vn -0.803553224 0.351794689 0.480148636
v 0.968738051 0.298148188 0.028562427
vn -0.300301523 0.553398895 0.776896813
v 1.098508953 0.296095362 0.028562427
vn 0.317655153 0.543623533 0.776896813
v 1.202799826 0.250436937 -0.033754690
vn 0.814278357 0.326202458 0.480148636
v 1.243341615 0.377841392 -0.260000000
vn 0.999965941 0.008253330 -0.000000000
v 1.203746978 0.315667380 -0.366823958
vn 0.811420050 -0.287813396 -0.508685514
v 1.099066016 0.276579704 -0.432844795
vn 0.312939279 -0.473945187 -0.823070451
v 0.969283299 0.275508528 -0.432844795
vn -0.305073660 -0.479046025 -0.823070451
v 0.863971414 0.312863005 -0.366823958
vn -0.806558830 -0.301167564 -0.508685514
v 0.823355920 0.374374994 -0.260000000
vn -0.999965941 -0.008253330 -0.000000000
v 0.862950558 0.436549006 -0.153176042
vn -0.811420050 0.287813396 0.508685514
v 0.967631519 0.475636682 -0.087155205
vn -0.312939279 0.473945187 0.823070451
v 1.097414237 0.476707858 -0.087155205
vn 0.305073660 0.479046025 0.823070451
v 1.202726122 0.439353382 -0.153176042
vn 0.806558830 0.301167564 0.508685514
v 1.233109433 0.609422487 -0.367695526
vn 0.996208208 0.087001191 -0.000000000
v 1.197336753 0.558050848 -0.481387967
vn 0.825862113 -0.157625664 -0.541392576
v 1.095319309 0.519322814 -0.551653760
vn 0.340064761 -0.342044872 -0.875991589
v 0.966024297 0.508031178 -0.551653760
vn -0.275625772 -0.395814565 -0.875991589
v 0.858838018 0.528488962 -0.481387967
vn -0.786036627 -0.298396548 -0.541392576
v 0.814701986 0.572881987 -0.367695526
vn -0.996208208 -0.087001191 -0.000000000
v 0.850474666 0.624253626 -0.254003085
vn -0.825862113 0.157625664 0.541392576
v 0.952492110 0.662981660 -0.183737293
vn -0.340064761 0.342044872 0.875991589
v 1.081787121 0.674273296 -0.183737293
vn 0.275625772 0.395814565 0.875991589
v 1.188973401 0.653815512 -0.254003085
vn 0.786036627 0.298396548 0.541392576
v 1.193328696 0.874152922 -0.450333210
vn 0.976816021 0.214080504 -0.000000000
v 1.160988490 0.834373494 -0.569565795
vn 0.822815040 0.024654656 -0.567774213
v 1.062647935 0.792616446 -0.643255585
vn 0.354526681 -0.174188433 -0.918677975
v 0.935869779 0.764831550 -0.643255585
vn -0.249178820 -0.306497460 -0.918677975
v 0.829078970 0.761631693 -0.569565795
vn -0.757706482 -0.321734876 -0.567774213
v 0.783065967 0.784239111 -0.450333210
vn -0.976816021 -0.214080504 -0.000000000
v 0.815406173 0.824018539 -0.331100625
vn -0.822815040 -0.024654656 0.567774213
v 0.913746729 0.865775587 -0.257410835
vn -0.354526681 0.174188433 0.918677975
v 1.040524884 0.893560483 -0.257410835
vn 0.249178820 0.306497460 0.918677975
v 1.147315693 0.896760340 -0.331100625
vn 0.757706482 0.321734876 0.567774213
v 1.104555216 1.162848418 -0.502281430
vn 0.927355106 0.374182451 -0.000000000
v 1.073131867 1.133542320 -0.624749494
vn 0.777720110 0.234629601 -0.583181259
v 0.979325362 1.085415909 -0.700438920
vn 0.331022465 0.005456217 -0.943607099
v 0.858966597 1.036851840 -0.700438920
vn -0.242114510 -0.225801256 -0.943607099
v 0.758028530 1.006399935 -0.624749494
vn -0.722771972 -0.370810324 -0.583181259
v 0.715066072 1.005691789 -0.502281430
vn -0.927355106 -0.374182451 -0.000000000
v 0.746489421 1.034997887 -0.379813365
vn -0.777720110 -0.234629601 0.583181259
v 0.840295926 1.083124298 -0.304123939
vn -0.331022465 -0.005456217 0.943607099
v 0.960654691 1.131688367 -0.304123939
vn 0.242114510 0.225801256 0.943607099
v 1.061592758 1.162140271 -0.379813365
vn 0.722771972 0.370810324 0.583181259
v 0.950545007 1.457595397 -0.520000000
vn 0.835928606 0.548838196 -0.000000000
v 0.917018894 1.435583456 -0.643434903
vn 0.676280449 0.444019428 -0.587785252
v 0.829246391 1.377955445 -0.719721868
vn 0.258316145 0.169600330 -0.951056516
v 0.720753609 1.306723307 -0.719721868
vn -0.258316145 -0.169600330 -0.951056516
v 0.632981106 1.249095296 -0.643434903
vn -0.676280449 -0.444019428 -0.587785252
v 0.599454993 1.227083355 -0.520000000
vn -0.835928606 -0.548838196 -0.000000000
v 0.632981106 1.249095296 -0.396565097
vn -0.676280449 -0.444019428 0.587785252
v 0.720753609 1.306723307 -0.320278132
vn -0.258316145 -0.169600330 0.951056516
v 0.829246391 1.377955445 -0.320278132
vn 0.258316145 0.169600330 0.951056516
v 0.917018894 1.435583456 -0.396565097
vn 0.676280449 0.444019428 0.587785252
v 0.722294196 1.733808964 -0.502281430
vn 0.695866115 0.718171532 -0.000000000
v 0.684745316 1.714346431 -0.624984292
vn 0.517061923 0.625492800 -0.584299345
v 0.605721419 1.644711329 -0.700818832
vn 0.140757651 0.293897078 -0.945416200
v 0.515406948 1.551501901 -0.700818832
vn -0.289311260 -0.149957339 -0.945416200
v 0.448298961 1.470320981 -0.624984292
vn -0.608873102 -0.536533149 -0.584299345
v 0.430030428 1.432176921 -0.502281430
vn -0.695866115 -0.718171532 -0.000000000
v 0.467579308 1.451639455 -0.379578567
vn -0.517061923 -0.625492800 0.584299345
v 0.546603205 1.521274556 -0.303744028
vn -0.140757651 -0.293897078 0.945416200
v 0.636917677 1.614483984 -0.303744028
vn 0.289311260 0.149957339 0.945416200
v 0.704025664 1.695664904 -0.379578567
vn 0.608873102 0.536533149 0.584299345
v 0.420778077 1.963507836 -0.450333210
vn 0.507023218 0.861932397 -0.000000000
v 0.379390463 1.941322860 -0.571327397
vn 0.309939341 0.756289652 -0.576162796
v 0.313141727 1.858473726 -0.646105917
vn -0.005530830 0.361769965 -0.932250987
v 0.247336635 1.746605987 -0.646105917
vn -0.318888411 -0.170933552 -0.932250987
v 0.207110495 1.648449318 -0.571327397
vn -0.510441458 -0.638346262 -0.576162796
v 0.207828326 1.601496230 -0.450333210
vn -0.507023218 -0.861932397 -0.000000000
v 0.249215940 1.623681206 -0.329339023
vn -0.309939341 -0.756289652 0.576162796
v 0.315464676 1.706530340 -0.254560503
vn 0.005530830 -0.361769965 0.932250987
v 0.381269768 1.818398079 -0.254560503
vn 0.318888411 0.170933552 0.932250987
v 0.421495908 1.916554748 -0.329339023
vn 0.510441458 0.638346262 0.576162796
v 0.058044461 2.119514357 -0.367695526
vn 0.276402194 0.961042053 -0.000000000
v 0.015355382 2.090059792 -0.486669356
vn 0.073120866 0.820782217 -0.566542047
v -0.033198931 1.994767935 -0.560199227
vn -0.158090147 0.367011471 -0.916684289
v -0.069072380 1.870037038 -0.560199227
vn -0.328916097 -0.226945182 -0.916684289
v -0.078562528 1.763510063 -0.486669356
vn -0.374107278 -0.734216489 -0.566542047
v -0.058044461 1.715876695 -0.367695526
vn -0.276402194 -0.961042053 -0.000000000
v -0.015355382 1.745331261 -0.248721696
vn -0.073120866 -0.820782217 0.566542047
v 0.033198931 1.840623117 -0.175191826
vn 0.158090147 -0.367011471 0.916684289
v 0.069072380 1.965354014 -0.175191826
vn 0.328916097 0.226945182 0.916684289
v 0.078562528 2.071880989 -0.248721696
vn 0.374107278 0.734216489 0.566542047
v -0.343570491 2.179909564 -0.260000000
vn 0.018017742 0.999837667 -0.000000000
v -0.383122003 2.140509366 -0.377166562
vn -0.170322793 0.812217676 -0.557936011
v -0.409011437 2.035958863 -0.449579480
vn -0.293605811 0.314358139 -0.902759430
v -0.411349908 1.906192794 -0.449579480
vn -0.304741388 -0.303575523 -0.902759430
v -0.389244200 1.800777387 -0.377166562
vn -0.199476113 -0.805553653 -0.557936011
v -0.351137943 1.759977744 -0.260000000
vn -0.018017742 -0.999837667 -0.000000000
v -0.311586430 1.799377942 -0.142833438
vn 0.170322793 -0.812217676 0.557936011
v -0.285696996 1.903928445 -0.070420520
vn 0.293605811 -0.314358139 0.902759430
v -0.283358525 2.033694514 -0.070420520
vn 0.304741388 0.303575523 0.902759430
v -0.305464233 2.139109921 -0.142833438
vn 0.199476113 0.805553653 0.557936011
v -0.754082602 2.131932566 -0.134585903
vn -0.248385777 0.968661192 0.000000000
v -0.785151837 2.082561756 -0.250525228
vn -0.396334515 0.733562099 -0.552092020
v -0.784429946 1.974349831 -0.322179671
vn -0.392896938 0.218267217 -0.893303654
v -0.752192667 1.848630067 -0.322179671
vn -0.239386086 -0.380398323 -0.893303654
v -0.700753545 1.753423142 -0.250525228
vn 0.005562115 -0.833764633 -0.552092020
v -0.649760576 1.725094865 -0.134585903
vn 0.248385777 -0.968661192 -0.000000000
v -0.618691341 1.774465674 -0.018646579
vn 0.396334515 -0.733562099 0.552092020
v -0.619413232 1.882677600 0.053007864
vn 0.392896938 -0.218267217 0.893303654
v -0.651650511 2.008397363 0.053007864
vn 0.239386086 0.380398323 0.893303654
v -0.703089633 2.103604288 -0.018646579
vn -0.005562115 0.833764633 0.552092020
v -1.140000000 1.974537921 -0.000000000
vn -0.500000000 0.866025404 0.000000000
v -1.157639932 1.918042583 -0.115506756
vn -0.583999677 0.596999988 -0.550032173
v -1.128435579 1.813660168 -0.186893858
vn -0.444931326 0.099940869 -0.889970751
v -1.063542010 1.701261210 -0.186893858
vn -0.135914332 -0.435292266 -0.889970751
v -0.987746363 1.623778290 -0.115506756
vn 0.225017318 -0.804258550 -0.550032173
v -0.930000000 1.610807251 -0.000000000
vn 0.500000000 -0.866025404 -0.000000000
v -0.912360068 1.667302588 0.115506756
vn 0.583999677 -0.596999988 0.550032173
v -0.941564421 1.771685003 0.186893858
vn 0.444931326 -0.099940869 0.889970751
v -1.006457990 1.884083962 0.186893858
vn 0.135914332 0.435292266 0.889970751
v -1.082253637 1.961566881 0.115506756
vn -0.225017318 0.804258550 0.550032173
v -1.469266460 1.719020973 0.134585903
vn -0.714692312 0.699438989 0.000000000
v -1.470229937 1.660695627 0.018646579
vn -0.719280296 0.421699250 -0.552092020
v -1.413497882 1.568544578 -0.053007864
vn -0.449127654 -0.017115270 -0.893303654
v -1.320740013 1.477766394 -0.053007864
vn -0.007423514 -0.449392338 -0.893303654
v -1.227386682 1.423035255 0.018646579
vn 0.437116156 -0.710016808 -0.552092020
v -1.169095689 1.425256597 0.134585903
vn 0.714692312 -0.699438989 -0.000000000
v -1.168132212 1.483581942 0.250525228
vn 0.719280296 -0.421699250 0.552092020
v -1.224864267 1.575732992 0.322179671
vn 0.449127654 0.017115270 0.893303654
v -1.317622137 1.666511176 0.322179671
vn 0.007423514 0.449392338 0.893303654
v -1.410975467 1.721242315 0.250525228
vn -0.437116156 0.710016808 0.552092020
v -1.716071815 1.387495555 0.260000000
vn -0.874893691 0.484315011 0.000000000
v -1.699791417 1.334094746 0.142833438
vn -0.797367984 0.230025445 -0.557936011
v -1.619551850 1.262242938 0.070420520
vn -0.415274809 -0.112126023 -0.902759430
v -1.506001902 1.199385079 0.070420520
vn 0.125439229 -0.411449161 -0.902759430
v -1.402513794 1.169530735 0.142833438
vn 0.618239744 -0.553612704 -0.557936011
v -1.348616465 1.184083250 0.260000000
vn 0.874893691 -0.484315011 -0.000000000
v -1.364896863 1.237484059 0.377166562
vn 0.797367984 -0.230025445 0.557936011
v -1.445136430 1.309335867 0.449579480
vn 0.415274809 0.112126023 0.902759430
v -1.558686378 1.372193726 0.449579480
vn -0.125439229 0.411449161 0.902759430
v -1.662174486 1.402048070 0.377166562
vn -0.618239744 0.553612704 0.557936011
v -1.864575507 1.009489201 0.367695526
vn -0.970487929 0.241149705 0.000000000
v -1.833582834 0.967903349 0.248721696
vn -0.822903771 0.043121838 -0.566542047
v -1.736582694 0.922858571 0.175191826
vn -0.360998341 -0.171377105 -0.916684289
v -1.610625844 0.891560441 0.175191826
vn 0.238796184 -0.320415819 -0.916684289
v -1.503823519 0.885963781 0.248721696
vn 0.747378684 -0.347066581 -0.566542047
v -1.456970577 0.908206325 0.367695526
vn 0.970487929 -0.241149705 -0.000000000
v -1.487963251 0.949792177 0.486669356
vn 0.822903771 -0.043121838 0.566542047
v -1.584963391 0.994836955 0.560199227
vn 0.360998341 0.171377105 0.916684289
v -1.710920241 1.026135085 0.560199227
vn -0.238796184 0.320415819 0.916684289
v -1.817722566 1.031731745 0.486669356
vn -0.747378684 0.347066581 0.566542047
v -1.910836705 0.617349414 0.450333210
vn -0.999966961 -0.008128788 0.000000000
v -1.870533053 0.593251210 0.329339023
vn -0.808044809 -0.122882139 -0.576162796
v -1.765413814 0.579009735 0.254560503
vn -0.307477004 -0.190698689 -0.932250987
v -1.635630965 0.580064747 0.254560503
vn 0.310536566 -0.185674822 -0.932250987
v -1.530757142 0.596013268 0.329339023
vn 0.809935722 -0.109729483 -0.576162796
v -1.490850582 0.620763505 0.450333210
vn 0.999966961 0.008128788 -0.000000000
v -1.531154234 0.644861709 0.571327397
vn 0.808044809 0.122882139 0.576162796
v -1.636273473 0.659103184 0.646105917
vn 0.307477004 0.190698689 0.932250987
v -1.766056322 0.658048172 0.646105917
vn -0.310536566 0.185674822 0.932250987
v -1.870930145 0.642099651 0.571327397
vn -0.809935722 0.109729483 0.576162796
v -1.862669707 0.241379359 0.502281430
vn -0.969887849 -0.243551967 0.000000000
v -1.820501715 0.238128342 0.379578567
vn -0.769087889 -0.259033000 -0.584299345
v -1.716642982 0.255655104 0.303744028
vn -0.274522495 -0.175572231 -0.945416200
v -1.590764015 0.287265016 0.303744028
vn 0.324901161 -0.025048837 -0.945416200
v -1.490946299 0.320884168 0.379578567
vn 0.800223616 0.135042361 -0.584299345
v -1.455316810 0.343671185 0.502281430
vn 0.969887849 0.243551967 -0.000000000
v -1.497484802 0.346922202 0.624984292
vn 0.769087889 0.259033000 0.584299345
v -1.601343534 0.329395441 0.700818832
vn 0.274522495 0.175572231 0.945416200
v -1.727222502 0.297785528 0.700818832
vn -0.324901161 0.025048837 0.945416200
v -1.827040218 0.264166376 0.624984292
vn -0.800223616 -0.135042361 0.584299345
v -1.737587146 -0.094398425 0.520000000
vn -0.893272123 -0.449516311 0.000000000
v -1.701761189 -0.076369930 0.396565097
vn -0.722672328 -0.363666335 -0.587785252
v -1.607967616 -0.029170718 0.320278132
vn -0.276036267 -0.138908179 -0.951056516
v -1.492032384 0.029170718 0.320278132
vn 0.276036267 0.138908179 -0.951056516
v -1.398238811 0.076369930 0.396565097
vn 0.722672328 0.363666335 -0.587785252
v -1.362412854 0.094398425 0.520000000
vn 0.893272123 0.449516311 -0.000000000
v -1.398238811 0.076369930 0.643434903
vn 0.722672328 0.363666335 0.587785252
v -1.492032384 0.029170718 0.719721868
vn 0.276036267 0.138908179 0.951056516
v -1.607967616 -0.029170718 0.719721868
vn -0.276036267 -0.138908179 0.951056516
v -1.701761189 -0.076369930 0.643434903
vn -0.722672328 -0.363666335 0.587785252
v -1.559333879 -0.375148668 0.502281430
vn -0.787729062 -0.616021855 0.000000000
v -1.537239377 -0.338296161 0.379813365
vn -0.682517146 -0.440533727 -0.583181259
v -1.460398221 -0.266107183 0.304123939
vn -0.316606879 -0.096776688 -0.943607099
v -1.358161120 -0.186155470 0.304123939
vn 0.170236455 0.283945756 -0.943607099
v -1.269579174 -0.128979858 0.379813365
vn 0.592055250 0.556210572 -0.583181259
v -1.228487673 -0.116419489 0.502281430
vn 0.787729062 0.616021855 -0.000000000
v -1.250582175 -0.153271996 0.624749494
vn 0.682517146 0.440533727 0.583181259
v -1.327423331 -0.225460974 0.700438920
vn 0.316606879 0.096776688 0.943607099
v -1.429660432 -0.305412687 0.700438920
vn -0.170236455 -0.283945756 0.943607099
v -1.518242378 -0.362588299 0.624749494
vn -0.592055250 -0.556210572 0.583181259
v -1.353702985 -0.596376505 0.450333210
vn -0.673807165 -0.738907237 0.000000000
v -1.350275082 -0.545224366 0.331100625
vn -0.657483816 -0.495325624 -0.567774213
v -1.294108520 -0.454340741 0.257410835
vn -0.390023997 -0.062546458 -0.918677975
v -1.206657017 -0.358440086 0.257410835
vn 0.026411733 0.394123329 -0.918677975
v -1.121324074 -0.294153191 0.331100625
vn 0.432759078 0.700251400 -0.567774213
v -1.070703976 -0.286035465 0.450333210
vn 0.673807165 0.738907237 -0.000000000
v -1.074131879 -0.337187604 0.569565795
vn 0.657483816 0.495325624 0.567774213
v -1.130298441 -0.428071229 0.643255585
vn 0.390023997 0.062546458 0.918677975
v -1.217749945 -0.523971884 0.643255585
vn -0.026411733 -0.394123329 0.918677975
v -1.303082887 -0.588258779 0.569565795
vn -0.432759078 -0.700251400 0.567774213
v -1.144330072 -0.763192851 0.367695526
vn -0.573449345 -0.819241020 0.000000000
v -1.160707543 -0.702773414 0.254003085
vn -0.651437304 -0.531529414 -0.541392576
v -1.124831364 -0.599718481 0.183737293
vn -0.480598354 -0.040791637 -0.875991589
v -1.050405015 -0.493391534 0.183737293
vn -0.126187168 0.465527158 -0.875991589
v -0.965856832 -0.424405853 0.254003085
vn 0.276423227 0.794030401 -0.541392576
v -0.903481347 -0.419111623 0.367695526
vn 0.573449345 0.819241020 -0.000000000
v -0.887103875 -0.479531060 0.481387967
vn 0.651437304 0.531529414 0.541392576
v -0.922980055 -0.582585993 0.551653760
vn 0.480598354 0.040791637 0.875991589
v -0.997406404 -0.688912940 0.551653760
vn 0.126187168 -0.465527158 0.875991589
v -1.081954587 -0.757898621 0.481387967
vn -0.276423227 -0.794030401 0.541392576
v -0.948891052 -0.887844728 0.260000000
vn -0.507130563 -0.861869243 0.000000000
v -0.981854251 -0.821914685 0.153176042
vn -0.664098176 -0.547916654 -0.508685514
v -0.961548234 -0.712034678 0.087155205
vn -0.567402857 -0.024678527 -0.823070451
v -0.895729210 -0.600175136 0.087155205
vn -0.253978933 0.507985959 -0.823070451
v -0.809537808 -0.529062602 0.153176042
vn 0.156456312 0.846617074 -0.508685514
v -0.735896215 -0.525859646 0.260000000
vn 0.507130563 0.861869243 -0.000000000
v -0.702933017 -0.591789690 0.366823958
vn 0.664098176 0.547916654 0.508685514
v -0.723239034 -0.701669697 0.432844795
vn 0.567402857 0.024678527 0.823070451
v -0.789058058 -0.813529239 0.432844795
vn 0.253978933 -0.507985959 0.823070451
v -0.875249459 -0.884641773 0.366823958
vn -0.156456312 -0.846617074 0.508685514
v -0.775570841 -0.986102344 0.134585903
vn -0.486239643 -0.873825503 0.000000000
v -0.818284662 -0.916436737 0.033754690
vn -0.689638794 -0.542084514 -0.480148636
v -0.805680582 -0.803288979 -0.028562427
vn -0.629619366 -0.003285666 -0.776896813
v -0.742572931 -0.689877668 -0.028562427
vn -0.329106740 0.536768195 -0.776896813
v -0.653066686 -0.619522070 0.033754690
vn 0.097113475 0.871794850 -0.480148636
v -0.571350190 -0.619095633 0.134585903
vn 0.486239643 0.873825503 -0.000000000
v -0.528636369 -0.688761241 0.235417117
vn 0.689638794 0.542084514 0.480148636
v -0.541240449 -0.801908999 0.297734234
vn 0.629619366 0.003285666 0.776896813
v -0.604348100 -0.915320310 0.297734234
vn 0.329106740 -0.536768195 0.776896813
v -0.693854345 -0.985675907 0.235417117
vn -0.097113475 -0.871794850 0.480148636
v -0.620000000 -1.073871501 0.000000000
vn -0.500000000 -0.866025404 0.000000000
v -0.664481762 -1.001879026 -0.098403036
vn -0.711817912 -0.523204096 -0.468585888
v -0.651866571 -0.887918853 -0.159219457
vn -0.651745576 0.019463394 -0.758187893
v -0.586973002 -0.775519895 -0.159219457
vn -0.342728581 0.554696529 -0.758187893
v -0.494588193 -0.707614733 -0.098403036
vn 0.097199082 0.878054443 -0.468585888
v -0.410000000 -0.710140831 0.000000000
vn 0.500000000 0.866025404 -0.000000000
v -0.365518238 -0.782133306 0.098403036
vn 0.711817912 0.523204096 0.468585888
v -0.378133429 -0.896093479 0.159219457
vn 0.651745576 -0.019463394 0.758187893
v -0.443026998 -1.008492437 0.159219457
vn 0.342728581 -0.554696529 0.758187893
v -0.535411807 -1.076397599 0.098403036
vn -0.097199082 -0.878054443 0.468585888
v -0.466204261 -1.164715222 -0.134585903
vn -0.513635262 -0.858008635 0.000000000
v -0.506693203 -1.093733443 -0.235417117
vn -0.706439749 -0.520000161 -0.480148636
v -0.490516591 -0.981040962 -0.297734234
vn -0.629408263 0.016630700 -0.776896813
v -0.423853340 -0.869682477 -0.297734234
vn -0.311964213 0.546909199 -0.776896813
v -0.332166547 -0.802193145 -0.235417117
vn 0.124639563 0.868286972 -0.480148636
v -0.250477450 -0.804351596 -0.134585903
vn 0.513635262 0.858008635 -0.000000000
v -0.209988508 -0.875333375 -0.033754690
vn 0.706439749 0.520000161 0.480148636
v -0.226165120 -0.988025856 0.028562427
vn 0.629408263 -0.016630700 0.776896813
v -0.292828371 -1.099384341 0.028562427
vn 0.311964213 -0.546909199 0.776896813
v -0.384515164 -1.166873673 -0.033754690
vn -0.124639563 -0.868286972 0.480148636
v -0.294450563 -1.265686121 -0.260000000
vn -0.492835377 -0.870122572 0.000000000
v -0.328497519 -1.200309153 -0.366823958
vn -0.654963737 -0.558803678 -0.508685514
v -0.310007958 -1.090108943 -0.432844795
vn -0.566918211 -0.034040772 -0.823070451
v -0.246044266 -0.977178225 -0.432844795
vn -0.262329197 0.503724552 -0.823070451
v -0.161038397 -0.904652695 -0.366823958
vn 0.142460654 0.849084218 -0.508685514
v -0.087459705 -0.900234640 -0.260000000
vn 0.492835377 0.870122572 -0.000000000
v -0.053412749 -0.965611608 -0.153176042
vn 0.654963737 0.558803678 0.508685514
v -0.071902310 -1.075811818 -0.087155205
vn 0.566918211 0.034040772 0.823070451
v -0.135866003 -1.188742537 -0.087155205
vn 0.262329197 -0.503724552 0.823070451
v -0.220871871 -1.261268066 -0.153176042
vn -0.142460654 -0.849084218 0.508685514
v -0.088779361 -1.372615338 -0.367695526
vn -0.422758862 -0.906242211 0.000000000
v -0.115382166 -1.315949469 -0.481387967
vn -0.549438885 -0.636404738 -0.541392576
v -0.097912905 -1.208235754 -0.551653760
vn -0.466251929 -0.123482286 -0.875991589
v -0.043044242 -1.090617171 -0.551653760
vn -0.204972583 0.436606203 -0.875991589
v 0.028265858 -1.008020022 -0.481387967
vn 0.134599323 0.829925961 -0.541392576
v 0.088779361 -0.991993610 -0.367695526
vn 0.422758862 0.906242211 -0.000000000
v 0.115382166 -1.048659479 -0.254003085
vn 0.549438885 0.636404738 0.541392576
v 0.097912905 -1.156373194 -0.183737293
vn 0.466251929 0.123482286 0.875991589
v 0.043044242 -1.273991776 -0.183737293
vn 0.204972583 -0.436606203 0.875991589
v -0.028265858 -1.356588926 -0.254003085
vn -0.134599323 -0.829925961 0.541392576
v 0.160374290 -1.470529427 -0.450333210
vn -0.303008856 -0.952987740 0.000000000
v 0.142094397 -1.422632273 -0.569565795
vn -0.390055962 -0.724906055 -0.567774213
v 0.155102010 -1.316588329 -0.643255585
vn -0.328114948 -0.219934896 -0.918677975
v 0.194428662 -1.192902778 -0.643255585
vn -0.140845177 0.369043919 -0.918677975
v 0.245052909 -1.098819296 -0.569565795
vn 0.100222665 0.817060500 -0.567774213
v 0.287638009 -1.070274576 -0.450333210
vn 0.303008856 0.952987740 -0.000000000
v 0.305917901 -1.118171730 -0.331100625
vn 0.390055962 0.724906055 0.567774213
v 0.292910288 -1.224215673 -0.257410835
vn 0.328114948 0.219934896 0.918677975
v 0.253583636 -1.347901224 -0.257410835
vn 0.140845177 -0.369043919 0.918677975
v 0.202959389 -1.441984706 -0.331100625
vn -0.100222665 -0.817060500 0.567774213
v 0.454778663 -1.537997086 -0.502281430
vn -0.139626045 -0.990204306 0.000000000
v 0.445110511 -1.496130618 -0.624749494
vn -0.185664860 -0.790840173 -0.583181259
v 0.450335070 -1.390828596 -0.700438920
vn -0.160786010 -0.289401973 -0.943607099
v 0.468456735 -1.262312814 -0.700438920
vn -0.074492369 0.322577944 -0.943607099
v 0.492553646 -1.159671931 -0.624749494
vn 0.040254825 0.811344050 -0.583181259
v 0.513421602 -1.122111278 -0.502281430
vn 0.139626045 0.990204306 -0.000000000
v 0.523089753 -1.163977746 -0.379813365
vn 0.185664860 0.790840173 0.583181259
v 0.517865194 -1.269279768 -0.304123939
vn 0.160786010 0.289401973 0.943607099
v 0.499743530 -1.397795550 -0.304123939
vn 0.074492369 -0.322577944 0.943607099
v 0.475646619 -1.500436432 -0.379813365
vn -0.040254825 -0.811344050 0.583181259
v 0.787042139 -1.551993822 -0.520000000
vn 0.057343517 -0.998354507 0.000000000
v 0.784742295 -1.511953386 -0.643434903
vn 0.046391880 -0.807685762 -0.587785252
v 0.778721225 -1.407126163 -0.719721868
vn 0.017720121 -0.308508509 -0.951056516
v 0.771278775 -1.277552589 -0.719721868
vn -0.017720121 0.308508509 -0.951056516
v 0.765257705 -1.172725366 -0.643434903
vn -0.046391880 0.807685762 -0.587785252
v 0.762957861 -1.132684929 -0.520000000
vn -0.057343517 0.998354507 -0.000000000
v 0.765257705 -1.172725366 -0.396565097
vn -0.046391880 0.807685762 0.587785252
v 0.771278775 -1.277552589 -0.320278132
vn -0.017720121 0.308508509 0.951056516
v 0.778721225 -1.407126163 -0.320278132
vn 0.017720121 -0.308508509 0.951056516
v 0.784742295 -1.511953386 -0.396565097
vn 0.046391880 -0.807685762 0.587785252
v 1.140375510 -1.492429605 -0.502281430
vn 0.274021734 -0.961723499 0.000000000
v 1.142294902 -1.450180054 -0.624984292
vn 0.283161693 -0.760535161 -0.584299345
v 1.121501083 -1.346925801 -0.700818832
vn 0.184143510 -0.268848240 -0.945416200
v 1.085936587 -1.222106461 -0.700818832
vn 0.014788765 0.325529570 -0.945416200
v 1.049185841 -1.123398779 -0.624984292
vn -0.160214786 0.795566149 -0.584299345
v 1.025286382 -1.088505735 -0.502281430
vn -0.274021734 0.961723499 -0.000000000
v 1.023366991 -1.130755287 -0.379578567
vn -0.283161693 0.760535161 0.584299345
v 1.044160809 -1.234009540 -0.303744028
vn -0.184143510 0.268848240 0.945416200
v 1.079725306 -1.358828880 -0.303744028
vn -0.014788765 -0.325529570 0.945416200
v 1.116476051 -1.457536562 -0.379578567
vn 0.160214786 -0.795566149 0.584299345
v 1.490058628 -1.346158422 -0.450333210
vn 0.492943743 -0.870061185 0.000000000
v 1.491539682 -1.299223209 -0.571327397
vn 0.499996381 -0.646560169 -0.576162796
v 1.452914595 -1.200425554 -0.646105917
vn 0.316067395 -0.176095144 -0.932250987
v 1.388936838 -1.087502803 -0.646105917
vn 0.011411407 0.361632241 -0.932250987
v 1.324043738 -1.003587609 -0.571327397
vn -0.297603350 0.761228401 -0.576162796
v 1.283022256 -0.980732725 -0.450333210
vn -0.492943743 0.870061185 -0.000000000
v 1.281541202 -1.027667938 -0.329339023
vn -0.499996381 0.646560169 0.576162796
v 1.320166289 -1.126465593 -0.254560503
vn -0.316067395 0.176095144 0.932250987
v 1.384144047 -1.239388344 -0.254560503
vn -0.011411407 -0.361632241 0.932250987
v 1.449037146 -1.323303538 -0.329339023
vn 0.297603350 -0.761228401 0.576162796
v 1.806531047 -1.110025156 -0.367695526
vn 0.694085735 -0.719892348 0.000000000
v 1.802367184 -1.058328047 -0.486669356
vn 0.674257818 -0.473715636 -0.566542047
v 1.744119172 -0.968632850 -0.560199227
vn 0.396886331 -0.046595652 -0.916684289
v 1.654035771 -0.875200083 -0.560199227
vn -0.032082244 0.398322287 -0.916684289
v 1.566525779 -0.813717886 -0.486669356
vn -0.448796493 0.691094651 -0.566542047
v 1.515015038 -0.807670370 -0.367695526
vn -0.694085735 0.719892348 -0.000000000
v 1.519178901 -0.859367480 -0.248721696
vn -0.674257818 0.473715636 0.566542047
v 1.577426913 -0.949062676 -0.175191826
vn -0.396886331 0.046595652 0.916684289
v 1.667510314 -1.042495443 -0.175191826
vn 0.032082244 -0.398322287 0.916684289
v 1.755020306 -1.103977640 -0.248721696
vn 0.448796493 -0.691094651 0.566542047
v 2.059642306 -0.792414009 -0.260000000
vn 0.856875948 -0.515522656 0.000000000
v 2.045296489 -0.738461295 -0.377166562
vn 0.788562538 -0.258604972 -0.557936011
v 1.967697815 -0.663765137 -0.449579480
vn 0.419045040 0.097091022 -0.902759430
v 1.856486338 -0.596856927 -0.449579480
vn -0.110533420 0.415701545 -0.902759430
v 1.754141064 -0.563293328 -0.377166562
vn -0.597891871 0.575528208 -0.557936011
v 1.699754407 -0.575894493 -0.260000000
vn -0.856875948 0.515522656 -0.000000000
v 1.714100224 -0.629847207 -0.142833438
vn -0.788562538 0.258604972 0.557936011
v 1.791698898 -0.704543366 -0.070420520
vn -0.419045040 -0.097091022 0.902759430
v 1.902910375 -0.771451576 -0.070420520
vn 0.110533420 -0.415701545 0.902759430
v 2.005255649 -0.805015175 -0.142833438
vn 0.597891871 -0.575528208 0.557936011
v 2.223349062 -0.412911593 -0.134585903
vn 0.963078089 -0.269222203 0.000000000
v 2.196127304 -0.361319442 -0.250525228
vn 0.833450671 -0.023545292 -0.552092020
v 2.102052082 -0.307838655 -0.322179671
vn 0.385473424 0.231125121 -0.893303654
v 1.977056934 -0.272897076 -0.322179671
vn -0.209741569 0.397513593 -0.893303654
v 1.868885757 -0.269841200 -0.250525228
vn -0.724842411 0.412065384 -0.552092020
v 1.818856265 -0.299838268 -0.134585903
vn -0.963078089 0.269222203 -0.000000000
v 1.846078022 -0.351430419 -0.018646579
vn -0.833450671 0.023545292 0.552092020
v 1.940153244 -0.404911206 0.053007864
vn -0.385473424 -0.231125121 0.893303654
v 2.065148393 -0.439852785 0.053007864
vn 0.209741569 -0.397513593 0.893303654
v 2.173319570 -0.442908661 -0.018646579
vn 0.724842411 -0.412065384 0.552092020
f 1//1 11//11 12//12 2//2
f 2//2 12//12 13//13 3//3
f 3//3 13//13 14//14 4//4
f 4//4 14//14 15//15 5//5
f 5//5 15//15 16//16 6//6
f 6//6 16//16 17//17 7//7
f 7//7 17//17 18//18 8//8
f 8//8 18//18 19//19 9//9
f 9//9 19//19 20//20 10//10
f 10//10 20//20 11//11 1//1
f 11//11 21//21 22//22 12//12
f 12//12 22//22 23//23 13//13
f 13//13 23//23 24//24 14//14
f 14//14 24//24 25//25 15//15
f 15//15 25//25 26//26 16//16
f 16//16 26//26 27//27 17//17
f 17//17 27//27 28//28 18//18
f 18//18 28//28 29//29 19//19
f 19//19 29//29 30//30 20//20
f 20//20 30//30 21//21 11//11
f 21//21 31//31 32//32 22//22
f 22//22 32//32 33//33 23//23
f 23//23 33//33 34//34 24//24
f 24//24 34//34 35//35 25//25
f 25//25 35//35 36//36 26//26
f 26//26 36//36 37//37 27//27
f 27//27 37//37 38//38 28//28
f 28//28 38//38 39//39 29//29
f 29//29 39//39 40//40 30//30
f 30//30 40//40 31//31 21//21
f 31//31 41//41 42//42 32//32
f 32//32 42//42 43//43 33//33
f 33//33 43//43 44//44 34//34
f 34//34 44//44 45//45 35//35
f 35//35 45//45 46//46 36//36
f 36//36 46//46 47//47 37//37
f 37//37 47//47 48//48 38//38
f 38//38 48//48 49//49 39//39
f 39//39 49//49 50//50 40//40
f 40//40 50//50 41//41 31//31
f 41//41 51//51 52//52 42//42
f 42//42 52//52 53//53 43//43
f 43//43 53//53 54//54 44//44
f 44//44 54//54 55//55 45//45
f 45//45 55//55 56//56 46//46
f 46//46 56//56 57//57 47//47
f 47//47 57//57 58//58 48//48
f 48//48 58//58 59//59 49//49
f 49//49 59//59 60//60 50//50
f 50//50 60//60 51//51 41//41
f 51//51 61//61 62//62 52//52
f 52//52 62//62 63//63 53//53
f 53//53 63//63 64//64 54//54
f 54//54 64//64 65//65 55//55
f 55//55 65//65 66//66 56//56
f 56//56 66//66 67//67 57//57
f 57//57 67//67 68//68 58//58
f 58//58 68//68 69//69 59//59
f 59//59 69//69 70//70 60//60
f 60//60 70//70 61//61 51//51
f 61//61 71//71 72//72 62//62
f 62//62 72//72 73//73 63//63
f 63//63 73//73 74//74 64//64
f 64//64 74//74 75//75 65//65
f 65//65 75//75 76//76 66//66
f 66//66 76//76 77//77 67//67
f 67//67 77//77 78//78 68//68
f 68//68 78//78 79//79 69//69
f 69//69 79//79 80//80 70//70
f 70//70 80//80 71//71 61//61
f 71//71 81//81 82//82 72//72
f 72//72 82//82 83//83 73//73
f 73//73 83//83 84//84 74//74
f 74//74 84//84 85//85 75//75
f 75//75 85//85 86//86 76//76
f 76//76 86//86 87//87 77//77
f 77//77 87//87 88//88 78//78
f 78//78 88//88 89//89 79//79
f 79//79 89//89 90//90 80//80
f 80//80 90//90 81//81 71//71
f 81//81 91//91 92//92 82//82
f 82//82 92//92 93//93 83//83
f 83//83 93//93 94//94 84//84
f 84//84 94//94 95//95 85//85
f 85//85 95//95 96//96 86//86
f 86//86 96//96 97//97 87//87
f 87//87 97//97 98//98 88//88
f 88//88 98//98 99//99 89//89
f 89//89 99//99 100//100 90//90
f 90//90 100//100 91//91 81//81
f 91//91 101//101 102//102 92//92
f 92//92 102//102 103//103 93//93
f 93//93 103//103 104//104 94//94
f 94//94 104//104 105//105 95//95
f 95//95 105//105 106//106 96//96
f 96//96 106//106 107//107 97//97
f 97//97 107//107 108//108 98//98
f 98//98 108//108 109//109 99//99
f 99//99 109//109 110//110 100//100
f 100//100 110//110 101//101 91//91
f 101//101 111//111 112//112 102//102
f 102//102 112//112 113//113 103//103
f 103//103 113//113 114//114 104//104
f 104//104 114//114 115//115 105//105
f 105//105 115//115 116//116 106//106
f 106//106 116//116 117//117 107//107
f 107//107 117//117 118//118 108//108
f 108//108 118//118 119//119 109//109
f 109//109 119//119 120//120 110//110
f 110//110 120//120 111//111 101//101
f 111//111 121//121 122//122 112//112
f 112//112 122//122 123//123 113//113
f 113//113 123//123 124//124 114//114
f 114//114 124//124 125//125 115//115
f 115//115 125//125 126//126 116//116
f 116//116 126//126 127//127 117//117
f 117//117 127//127 128//128 118//118
f 118//118 128//128 129//129 119//119
f 119//119 129//129 130//130 120//120
f 120//120 130//130 121//121 111//111
f 121//121 131//131 132//132 122//122
f 122//122 132//132 133//133 123//123
f 123//123 133//133 134//134 124//124
f 124//124 134//134 135//135 125//125
f 125//125 135//135 136//136 126//126
f 126//126 136//136 137//137 127//127
f 127//127 137//137 138//138 128//128
f 128//128 138//138 139//139 129//129
f 129//129 139//139 140//140 130//130
f 130//130 140//140 131//131 121//121
f 131//131 141//141 142//142 132//132
f 132//132 142//142 143//143 133//133
f 133//133 143//143 144//144 134//134
f 134//134 144//144 145//145 135//135
f 135//135 145//145 146//146 136//136
f 136//136 146//146 147//147 137//137
f 137//137 147//147 148//148 138//138
f 138//138 148//148 149//149 139//139
f 139//139 149//149 150//150 140//140
f 140//140 150//150 141//141 131//131
f 141//141 151//151 152//152 142//142
f 142//142 152//152 153//153 143//143
f 143//143 153//153 154//154 144//144
f 144//144 154//154 155//155 145//145
f 145//145 155//155 156//156 146//146
f 146//146 156//156 157//157 147//147
f 147//147 157//157 158//158 148//148
f 148//148 158//158 159//159 149//149
f 149//149 159//159 160//160 150//150
f 150//150 160//160 151//151 141//141
f 151//151 161//161 162//162 152//152
f 152//152 162//162 163//163 153//153
f 153//153 163//163 164//164 154//154
f 154//154 164//164 165//165 155//155
f 155//155 165//165 166//166 156//156
f 156//156 166//166 167//167 157//157
f 157//157 167//167 168//168 158//158
f 158//158 168//168 169//169 159//159
f 159//159 169//169 170//170 160//160
f 160//160 170//170 161//161 151//151
f 161//161 171//171 172//172 162//162
f 162//162 172//172 173//173 163//163
f 163//163 173//173 174//174 164//164
f 164//164 174//174 175//175 165//165
f 165//165 175//175 176//176 166//166
f 166//166 176//176 177//177 167//167
f 167//167 177//177 178//178 168//168
f 168//168 178//178 179//179 169//169
f 169//169 179//179 180//180 170//170
f 170//170 180//180 171//171 161//161
f 171//171 181//181 182//182 172//172
f 172//172 182//182 183//183 173//173
f 173//173 183//183 184//184 174//174
f 174//174 184//184 185//185 175//175
f 175//175 185//185 186//186 176//176
f 176//176 186//186 187//187 177//177
f 177//177 187//187 188//188 178//178
f 178//178 188//188 189//189 179//179
f 179//179 189//189 190//190 180//180
f 180//180 190//190 181//181 171//171
f 181//181 191//191 192//192 182//182
f 182//182 192//192 193//193 183//183
f 183//183 193//193 194//194 184//184
f 184//184 194//194 195//195 185//185
f 185//185 195//195 196//196 186//186
f 186//186 196//196 197//197 187//187
f 187//187 197//197 198//198 188//188
f 188//188 198//198 199//199 189//189
f 189//189 199//199 200//200 190//190
f 190//190 200//200 191//191 181//181
f 191//191 201//201 202//202 192//192
f 192//192 202//202 203//203 193//193
f 193//193 203//203 204//204 194//194
f 194//194 204//204 205//205 195//195
f 195//195 205//205 206//206 196//196
f 196//196 206//206 207//207 197//197
f 197//197 207//207 208//208 198//198
f 198//198 208//208 209//209 199//199
f 199//199 209//209 210//210 200//200
f 200//200 210//210 201//201 191//191
f 201//201 211//211 212//212 202//202
f 202//202 212//212 213//213 203//203
f 203//203 213//213 214//214 204//204
f 204//204 214//214 215//215 205//205
f 205//205 215//215 216//216 206//206
f 206//206 216//216 217//217 207//207
f 207//207 217//217 218//218 208//208
f 208//208 218//218 219//219 209//209
f 209//209 219//219 220//220 210//210
f 210//210 220//220 211//211 201//201
f 211//211 221//221 222//222 212//212
f 212//212 222//222 223//223 213//213
f 213//213 223//223 224//224 214//214
f 214//214 224//224 225//225 215//215
f 215//215 225//225 226//226 216//216
f 216//216 226//226 227//227 217//217
f 217//217 227//227 228//228 218//218
f 218//218 228//228 229//229 219//219
f 219//219 229//229 230//230 220//220
f 220//220 230//230 221//221 211//211
f 221//221 231//231 232//232 222//222
f 222//222 232//232 233//233 223//223
f 223//223 233//233 234//234 224//224
f 224//224 234//234 235//235 225//225
f 225//225 235//235 236//236 226//226
f 226//226 236//236 237//237 227//227
f 227//227 237//237 238//238 228//228
f 228//228 238//238 239//239 229//229
f 229//229 239//239 240//240 230//230
f 230//230 240//240 231//231 221//221
f 231//231 241//241 242//242 232//232
f 232//232 242//242 243//243 233//233
f 233//233 243//243 244//244 234//234
f 234//234 244//244 245//245 235//235
f 235//235 245//245 246//246 236//236
f 236//236 246//246 247//247 237//237
f 237//237 247//247 248//248 238//238
f 238//238 248//248 249//249 239//239
f 239//239 249//249 250//250 240//240
f 240//240 250//250 241//241 231//231
f 241//241 251//251 252//252 242//242
f 242//242 252//252 253//253 243//243
f 243//243 253//253 254//254 244//244
f 244//244 254//254 255//255 245//245
f 245//245 255//255 256//256 246//246
f 246//246 256//256 257//257 247//247
f 247//247 257//257 258//258 248//248
f 248//248 258//258 259//259 249//249
f 249//249 259//259 260//260 250//250
f 250//250 260//260 251//251 241//241
f 251//251 261//261 262//262 252//252
f 252//252 262//262 263//263 253//253
f 253//253 263//263 264//264 254//254
f 254//254 264//264 265//265 255//255
f 255//255 265//265 266//266 256//256
f 256//256 266//266 267//267 257//257
f 257//257 267//267 268//268 258//258
f 258//258 268//268 269//269 259//259
f 259//259 269//269 270//270 260//260
f 260//260 270//270 261//261 251//251
f 261//261 271//271 272//272 262//262
f 262//262 272//272 273//273 263//263
f 263//263 273//273 274//274 264//264
f 264//264 274//274 275//275 265//265
f 265//265 275//275 276//276 266//266
f 266//266 276//276 277//277 267//267
f 267//267 277//277 278//278 268//268
f 268//268 278//278 279//279 269//269
f 269//269 279//279 280//280 270//270
f 270//270 280//280 271//271 261//261
f 271//271 281//281 282//282 272//272
f 272//272 282//282 283//283 273//273
f 273//273 283//283 284//284 274//274
f 274//274 284//284 285//285 275//275
f 275//275 285//285 286//286 276//276
f 276//276 286//286 287//287 277//277
f 277//277 287//287 288//288 278//278
f 278//278 288//288 289//289 279//279
f 279//279 289//289 290//290 280//280
f 280//280 290//290 281//281 271//271
f 281//281 291//291 292//292 282//282
f 282//282 292//292 293//293 283//283
f 283//283 293//293 294//294 284//284
f 284//284 294//294 295//295 285//285
f 285//285 295//295 296//296 286//286
f 286//286 296//296 297//297 287//287
f 287//287 297//297 298//298 288//288
f 288//288 298//298 299//299 289//289
f 289//289 299//299 300//300 290//290
f 290//290 300//300 291//291 281//281
f 291//291 301//301 302//302 292//292
f 292//292 302//302 303//303 293//293
f 293//293 303//303 304//304 294//294
f 294//294 304//304 305//305 295//295
f 295//295 305//305 306//306 296//296
f 296//296 306//306 307//307 297//297
f 297//297 307//307 308//308 298//298
f 298//298 308//308 309//309 299//299
f 299//299 309//309 310//310 300//300
f 300//300 310//310 301//301 291//291
f 301//301 311//311 312//312 302//302
f 302//302 312//312 313//313 303//303
f 303//303 313//313 314//314 304//304
f 304//304 314//314 315//315 305//305
f 305//305 315//315 316//316 306//306
f 306//306 316//316 317//317 307//307
f 307//307 317//317 318//318 308//308
f 308//308 318//318 319//319 309//309
f 309//309 319//319 320//320 310//310
f 310//310 320//320 311//311 301//301
f 311//311 321//321 322//322 312//312
f 312//312 322//322 323//323 313//313
f 313//313 323//323 324//324 314//314
f 314//314 324//324 325//325 315//315
f 315//315 325//325 326//326 316//316
f 316//316 326//326 327//327 317//317
f 317//317 327//327 328//328 318//318
f 318//318 328//328 329//329 319//319
f 319//319 329//329 330//330 320//320
f 320//320 330//330 321//321 311//311
f 321//321 331//331 332//332 322//322
f 322//322 332//332 333//333 323//323
f 323//323 333//333 334//334 324//324
f 324//324 334//334 335//335 325//325
f 325//325 335//335 336//336 326//326
f 326//326 336//336 337//337 327//327
f 327//327 337//337 338//338 328//328
f 328//328 338//338 339//339 329//329
f 329//329 339//339 340//340 330//330
f 330//330 340//340 331//331 321//321
f 331//331 341//341 342//342 332//332
f 332//332 342//342 343//343 333//333
f 333//333 343//343 344//344 334//334
f 334//334 344//344 345//345 335//335
f 335//335 345//345 346//346 336//336
f 336//336 346//346 347//347 337//337
f 337//337 347//347 348//348 338//338
f 338//338 348//348 349//349 339//339
f 339//339 349//349 350//350 340//340
f 340//340 350//350 341//341 331//331
f 341//341 351//351 352//352 342//342
f 342//342 352//352 353//353 343//343
f 343//343 353//353 354//354 344//344
f 344//344 354//354 355//355 345//345
f 345//345 355//355 356//356 346//346
f 346//346 356//356 357//357 347//347
f 347//347 357//357 358//358 348//348
f 348//348 358//358 359//359 349//349
f 349//349 359//359 360//360 350//350
f 350//350 360//360 351//351 341//341
f 351//351 361//361 362//362 352//352
f 352//352 362//362 363//363 353//353
f 353//353 363//363 364//364 354//354
f 354//354 364//364 365//365 355//355
f 355//355 365//365 366//366 356//356
f 356//356 366//366 367//367 357//357
f 357//357 367//367 368//368 358//358
f 358//358 368//368 369//369 359//359
f 359//359 369//369 370//370 360//360
f 360//360 370//370 361//361 351//351
f 361//361 371//371 372//372 362//362
f 362//362 372//372 373//373 363//363
f 363//363 373//373 374//374 364//364
f 364//364 374//374 375//375 365//365
f 365//365 375//375 376//376 366//366
f 366//366 376//376 377//377 367//367
f 367//367 377//377 378//378 368//368
f 368//368 378//378 379//379 369//369
f 369//369 379//379 380//380 370//370
f 370//370 380//380 371//371 361//361
f 371//371 381//381 382//382 372//372
f 372//372 382//382 383//383 373//373
f 373//373 383//383 384//384 374//374
f 374//374 384//384 385//385 375//375
f 375//375 385//385 386//386 376//376
f 376//376 386//386 387//387 377//377
f 377//377 387//387 388//388 378//378
f 378//378 388//388 389//389 379//379
f 379//379 389//389 390//390 380//380
f 380//380 390//390 381//381 371//371
f 381//381 391//391 392//392 382//382
f 382//382 392//392 393//393 383//383
f 383//383 393//393 394//394 384//384
f 384//384 394//394 395//395 385//385
f 385//385 395//395 396//396 386//386
f 386//386 396//396 397//397 387//387
f 387//387 397//397 398//398 388//388
f 388//388 398//398 399//399 389//389
f 389//389 399//399 400//400 390//390
f 390//390 400//400 391//391 381//381
f 391//391 401//401 402//402 392//392
f 392//392 402//402 403//403 393//393
f 393//393 403//403 404//404 394//394
f 394//394 404//404 405//405 395//395
f 395//395 405//405 406//406 396//396
f 396//396 406//406 407//407 397//397
f 397//397 407//407 408//408 398//398
f 398//398 408//408 409//409 399//399
f 399//399 409//409 410//410 400//400
f 400//400 410//410 401//401 391//391
f 401//401 411//411 412//412 402//402
f 402//402 412//412 413//413 403//403
f 403//403 413//413 414//414 404//404
f 404//404 414//414 415//415 405//405
f 405//405 415//415 416//416 406//406
f 406//406 416//416 417//417 407//407
f 407//407 417//417 418//418 408//408
f 408//408 418//418 419//419 409//409
f 409//409 419//419 420//420 410//410
f 410//410 420//420 411//411 401//401
f 411//411 421//421 422//422 412//412
f 412//412 422//422 423//423 413//413
f 413//413 423//423 424//424 414//414
f 414//414 424//424 425//425 415//415
f 415//415 425//425 426//426 416//416
f 416//416 426//426 427//427 417//417
f 417//417 427//427 428//428 418//418
f 418//418 428//428 429//429 419//419
f 419//419 429//429 430//430 420//420
f 420//420 430//430 421//421 411//411
f 421//421 431//431 432//432 422//422
f 422//422 432//432 433//433 423//423
f 423//423 433//433 434//434 424//424
f 424//424 434//434 435//435 425//425
f 425//425 435//435 436//436 426//426
f 426//426 436//436 437//437 427//427
f 427//427 437//437 438//438 428//428
f 428//428 438//438 439//439 429//429
f 429//429 439//439 440//440 430//430
f 430//430 440//440 431//431 421//421
f 431//431 441//441 442//442 432//432
f 432//432 442//442 443//443 433//433
f 433//433 443//443 444//444 434//434
f 434//434 444//444 445//445 435//435
f 435//435 445//445 446//446 436//436
f 436//436 446//446 447//447 437//437
f 437//437 447//447 448//448 438//438
f 438//438 448//448 449//449 439//439
f 439//439 449//449 450//450 440//440
f 440//440 450//450 441//441 431//431
f 441//441 451//451 452//452 442//442
f 442//442 452//452 453//453 443//443
f 443//443 453//453 454//454 444//444
f 444//444 454//454 455//455 445//445
f 445//445 455//455 456//456 446//446
f 446//446 456//456 457//457 447//447
f 447//447 457//457 458//458 448//448
f 448//448 458//458 459//459 449//449
f 449//449 459//459 460//460 450//450
f 450//450 460//460 451//451 441//441
f 451//451 461//461 462//462 452//452
f 452//452 462//462 463//463 453//453
f 453//453 463//463 464//464 454//454
f 454//454 464//464 465//465 455//455
f 455//455 465//465 466//466 456//456
f 456//456 466//466 467//467 457//457
f 457//457 467//467 468//468 458//458
f 458//458 468//468 469//469 459//459
f 459//459 469//469 470//470 460//460
f 460//460 470//470 461//461 451//451
f 461//461 471//471 472//472 462//462
f 462//462 472//472 473//473 463//463
f 463//463 473//473 474//474 464//464
f 464//464 474//474 475//475 465//465
f 465//465 475//475 476//476 466//466
f 466//466 476//476 477//477 467//467
f 467//467 477//477 478//478 468//468
f 468//468 478//478 479//479 469//469
f 469//469 479//479 480//480 470//470
f 470//470 480//480 471//471 461//461
f 471//471 481//481 482//482 472//472
f 472//472 482//482 483//483 473//473
f 473//473 483//483 484//484 474//474
f 474//474 484//484 485//485 475//475
f 475//475 485//485 486//486 476//476
f 476//476 486//486 487//487 477//477
f 477//477 487//487 488//488 478//478
f 478//478 488//488 489//489 479//479
f 479//479 489//489 490//490 480//480
f 480//480 490//490 481//481 471//471
f 481//481 491//491 492//492 482//482
f 482//482 492//492 493//493 483//483
f 483//483 493//493 494//494 484//484
f 484//484 494//494 495//495 485//485
f 485//485 495//495 496//496 486//486
f 486//486 496//496 497//497 487//487
f 487//487 497//497 498//498 488//488
f 488//488 498//498 499//499 489//489
f 489//489 499//499 500//500 490//490
f 490//490 500//500 491//491 481//481
f 491//491 501//501 502//502 492//492
f 492//492 502//502 503//503 493//493
f 493//493 503//503 504//504 494//494
f 494//494 504//504 505//505 495//495
f 495//495 505//505 506//506 496//496
f 496//496 506//506 507//507 497//497
f 497//497 507//507 508//508 498//498
f 498//498 508//508 509//509 499//499
f 499//499 509//509 510//510 500//500
f 500//500 510//510 501//501 491//491
f 501//501 511//511 512//512 502//502
f 502//502 512//512 513//513 503//503
f 503//503 513//513 514//514 504//504
f 504//504 514//514 515//515 505//505
f 505//505 515//515 516//516 506//506
f 506//506 516//516 517//517 507//507
f 507//507 517//517 518//518 508//508
f 508//508 518//518 519//519 509//509
f 509//509 519//519 520//520 510//510
f 510//510 520//520 511//511 501//501
f 511//511 521//521 522//522 512//512
f 512//512 522//522 523//523 513//513
f 513//513 523//523 524//524 514//514
f 514//514 524//524 525//525 515//515
f 515//515 525//525 526//526 516//516
f 516//516 526//526 527//527 517//517
f 517//517 527//527 528//528 518//518
f 518//518 528//528 529//529 519//519
f 519//519 529//529 530//530 520//520
f 520//520 530//530 521//521 511//511
f 521//521 531//531 532//532 522//522
f 522//522 532//532 533//533 523//523
f 523//523 533//533 534//534 524//524
f 524//524 534//534 535//535 525//525
f 525//525 535//535 536//536 526//526
f 526//526 536//536 537//537 527//527
f 527//527 537//537 538//538 528//528
f 528//528 538//538 539//539 529//529
f 529//529 539//539 540//540 530//530
f 530//530 540//540 531//531 521//521
f 531//531 541//541 542//542 532//532
f 532//532 542//542 543//543 533//533
f 533//533 543//543 544//544 534//534
f 534//534 544//544 545//545 535//535
f 535//535 545//545 546//546 536//536
f 536//536 546//546 547//547 537//537
f 537//537 547//547 548//548 538//538
f 538//538 548//548 549//549 539//539
f 539//539 549//549 550//550 540//540
f 540//540 550//550 541//541 531//531
f 541//541 551//551 552//552 542//542
f 542//542 552//552 553//553 543//543
f 543//543 553//553 554//554 544//544
f 544//544 554//554 555//555 545//545
f 545//545 555//555 556//556 546//546
f 546//546 556//556 557//557 547//547
f 547//547 557//557 558//558 548//548
f 548//548 558//558 559//559 549//549
f 549//549 559//559 560//560 550//550
f 550//550 560//560 551//551 541//541
f 551//551 561//561 562//562 552//552
f 552//552 562//562 563//563 553//553
f 553//553 563//563 564//564 554//554
f 554//554 564//564 565//565 555//555
f 555//555 565//565 566//566 556//556
f 556//556 566//566 567//567 557//557
f 557//557 567//567 568//568 558//558
f 558//558 568//568 569//569 559//559
f 559//559 569//569 570//570 560//560
f 560//560 570//570 561//561 551//551
f 561//561 571//571 572//572 562//562
f 562//562 572//572 573//573 563//563
f 563//563 573//573 574//574 564//564
f 564//564 574//574 575//575 565//565
f 565//565 575//575 576//576 566//566
f 566//566 576//576 577//577 567//567
f 567//567 577//577 578//578 568//568
f 568//568 578//578 579//579 569//569
f 569//569 579//579 580//580 570//570
f 570//570 580//580 571//571 561//561
f 571//571 581//581 582//582 572//572
f 572//572 582//582 583//583 573//573
f 573//573 583//583 584//584 574//574
f 574//574 584//584 585//585 575//575
f 575//575 585//585 586//586 576//576
f 576//576 586//586 587//587 577//577
f 577//577 587//587 588//588 578//578
f 578//578 588//588 589//589 579//579
f 579//579 589//589 590//590 580//580
f 580//580 590//590 581//581 571//571
f 581//581 591//591 592//592 582//582
f 582//582 592//592 593//593 583//583
f 583//583 593//593 594//594 584//584
f 584//584 594//594 595//595 585//585
f 585//585 595//595 596//596 586//586
f 586//586 596//596 597//597 587//587
f 587//587 597//597 598//598 588//588
f 588//588 598//598 599//599 589//589
f 589//589 599//599 600//600 590//590
f 590//590 600//600 591//591 581//581
f 591//591 601//601 602//602 592//592
f 592//592 602//602 603//603 593//593
f 593//593 603//603 604//604 594//594
f 594//594 604//604 605//605 595//595
f 595//595 605//605 606//606 596//596
f 596//596 606//606 607//607 597//597
f 597//597 607//607 608//608 598//598
f 598//598 608//608 609//609 599//599
f 599//599 609//609 610//610 600//600
f 600//600 610//610 601//601 591//591
f 601//601 611//611 612//612 602//602
f 602//602 612//612 613//613 603//603
f 603//603 613//613 614//614 604//604
f 604//604 614//614 615//615 605//605
f 605//605 615//615 616//616 606//606
f 606//606 616//616 617//617 607//607
f 607//607 617//617 618//618 608//608
f 608//608 618//618 619//619 609//609
f 609//609 619//619 620//620 610//610
f 610//610 620//620 611//611 601//601
f 611//611 621//621 622//622 612//612
f 612//612 622//622 623//623 613//613
f 613//613 623//623 624//624 614//614
f 614//614 624//624 625//625 615//615
f 615//615 625//625 626//626 616//616
f 616//616 626//626 627//627 617//617
f 617//617 627//627 628//628 618//618
f 618//618 628//628 629//629 619//619
f 619//619 629//629 630//630 620//620
f 620//620 630//630 621//621 611//611
f 621//621 631//631 632//632 622//622
f 622//622 632//632 633//633 623//623
f 623//623 633//633 634//634 624//624
f 624//624 634//634 635//635 625//625
f 625//625 635//635 636//636 626//626
f 626//626 636//636 637//637 627//627
f 627//627 637//637 638//638 628//628
f 628//628 638//638 639//639 629//629
f 629//629 639//639 640//640 630//630
f 630//630 640//640 631//631 621//621
f 631//631 641//641 642//642 632//632
f 632//632 642//642 643//643 633//633
f 633//633 643//643 644//644 634//634
f 634//634 644//644 645//645 635//635
f 635//635 645//645 646//646 636//636
f 636//636 646//646 647//647 637//637
f 637//637 647//647 648//648 638//638
f 638//638 648//648 649//649 639//639
f 639//639 649//649 650//650 640//640
f 640//640 650//650 641//641 631//631
f 641//641 651//651 652//652 642//642
f 642//642 652//652 653//653 643//643
f 643//643 653//653 654//654 644//644
f 644//644 654//654 655//655 645//645
f 645//645 655//655 656//656 646//646
f 646//646 656//656 657//657 647//647
f 647//647 657//657 658//658 648//648
f 648//648 658//658 659//659 649//649
f 649//649 659//659 660//660 650//650
f 650//650 660//660 651//651 641//641
f 651//651 661//661 662//662 652//652
f 652//652 662//662 663//663 653//653
f 653//653 663//663 664//664 654//654
f 654//654 664//664 665//665 655//655
f 655//655 665//665 666//666 656//656
f 656//656 666//666 667//667 657//657
f 657//657 667//667 668//668 658//658
f 658//658 668//668 669//669 659//659
f 659//659 669//669 670//670 660//660
f 660//660 670//670 661//661 651//651
f 661//661 671//671 672//672 662//662
f 662//662 672//672 673//673 663//663
f 663//663 673//673 674//674 664//664
f 664//664 674//674 675//675 665//665
f 665//665 675//675 676//676 666//666
f 666//666 676//676 677//677 667//667
f 667//667 677//677 678//678 668//668
f 668//668 678//678 679//679 669//669
f 669//669 679//679 680//680 670//670
f 670//670 680//680 671//671 661//661
f 671//671 681//681 682//682 672//672
f 672//672 682//682 683//683 673//673
f 673//673 683//683 684//684 674//674
f 674//674 684//684 685//685 675//675
f 675//675 685//685 686//686 676//676
f 676//676 686//686 687//687 677//677
f 677//677 687//687 688//688 678//678
f 678//678 688//688 689//689 679//679
f 679//679 689//689 690//690 680//680
f 680//680 690//690 681//681 671//671
f 681//681 691//691 692//692 682//682
f 682//682 692//692 693//693 683//683
f 683//683 693//693 694//694 684//684
f 684//684 694//694 695//695 685//685
f 685//685 695//695 696//696 686//686
f 686//686 696//696 697//697 687//687
f 687//687 697//697 698//698 688//688
f 688//688 698//698 699//699 689//689
f 689//689 699//699 700//700 690//690
f 690//690 700//700 691//691 681//681
f 691//691 701//701 702//702 692//692
f 692//692 702//702 703//703 693//693
f 693//693 703//703 704//704 694//694
f 694//694 704//704 705//705 695//695
f 695//695 705//705 706//706 696//696
f 696//696 706//706 707//707 697//697
f 697//697 707//707 708//708 698//698
f 698//698 708//708 709//709 699//699
f 699//699 709//709 710//710 700//700
f 700//700 710//710 701//701 691//691
f 701//701 711//711 712//712 702//702
f 702//702 712//712 713//713 703//703
f 703//703 713//713 714//714 704//704
f 704//704 714//714 715//715 705//705
f 705//705 715//715 716//716 706//706
f 706//706 716//716 717//717 707//707
f 707//707 717//717 718//718 708//708
f 708//708 718//718 719//719 709//709
f 709//709 719//719 720//720 710//710
f 710//710 720//720 711//711 701//701
f 711//711 1//1 2//2 712//712
f 712//712 2//2 3//3 713//713
f 713//713 3//3 4//4 714//714
f 714//714 4//4 5//5 715//715
f 715//715 5//5 6//6 716//716
f 716//716 6//6 7//7 717//717
f 717//717 7//7 8//8 718//718
f 718//718 8//8 9//9 719//719
f 719//719 9//9 10//10 720//720
f 720//720 10//10 1//1 711//711
